<svg xmlns="http://www.w3.org/2000/svg" xmlns:xlink="http://www.w3.org/1999/xlink" width="433.486" height="94.932" viewBox="0 0 433.486 94.932">
  <defs>
    <linearGradient id="linear-gradient" x1="0.5" x2="0.5" y2="0.804" gradientUnits="objectBoundingBox">
      <stop offset="0" stop-color="#f8f8f8"/>
      <stop offset="1" stop-color="#ebeced"/>
    </linearGradient>
  </defs>
  <path id="Intersection_11" data-name="Intersection 11" d="M393.691,123.653v-8.978h3.961q6.005,0,8.585-2.513t2.581-8.858l.121-54.23h9.722l-.119,54.23q0,20.349-21.248,20.35Zm-75.328-23.164a28.149,28.149,0,0,1-10.2-10.235,27.826,27.826,0,0,1,0-28.013,27.837,27.837,0,0,1,24.309-13.887A25.7,25.7,0,0,1,349.4,54.221q3.359,2.757,9.844,12.33L319.747,89.057A17.564,17.564,0,0,0,332.471,94.2a18.829,18.829,0,0,0,10.865-3.232,38.846,38.846,0,0,0,9.3-9.576l11.524-16.162V49.193h9.605v6.7a30.8,30.8,0,0,1,7.2-5.626,18.084,18.084,0,0,1,7.323-1.916q1.015-.08,1.98-.079a18.216,18.216,0,0,1,6.124.977,29.372,29.372,0,0,1,7.863,4.608L398.016,62q-2.64-4.907-8.763-4.669-4.8.242-9.484,4.669a67.693,67.693,0,0,0-7.563,8.26l-.12.12q-4.8,6.226-11.764,16.641a3.425,3.425,0,0,0-.6.958,42.021,42.021,0,0,1-11.644,11.91,29.187,29.187,0,0,1-29.713.6Zm1.322-36.931a17.381,17.381,0,0,0-5.222,12.688,21.594,21.594,0,0,0,.6,5.029l30.492-17.238a17.956,17.956,0,0,0-25.87-.479ZM11.893,100.549q-6.662-4.311-6.9-12.929-.242-8.738,6.122-13.827T28.76,68.705H44.127q0-6.1-3.542-8.318T30.441,58.172H12.194v-9.1H29.961q12.724,0,18.307,5.147t5.584,16.76V103.3H44.246V96.6l-.24.239a27.951,27.951,0,0,1-6.123,5.088q-3.121,1.86-9,2.215-1.476.1-2.875.1Q17.6,104.244,11.893,100.549Zm6.964-20.531A7.484,7.484,0,0,0,15.194,86.3q-.24,5.027,3.843,7.182a14.254,14.254,0,0,0,6.742,1.492,24.891,24.891,0,0,0,3.7-.3A16.419,16.419,0,0,0,36.8,91.751a40.969,40.969,0,0,0,7.442-7.6V77.684H28.76Q22.4,77.684,18.857,80.018Zm53.9,20.592a28,28,0,0,1-10.2-10.3,28.168,28.168,0,0,1,0-28.192,28.152,28.152,0,0,1,10.2-10.235,26.361,26.361,0,0,1,31.992,4.01V28.722h9.724V103.3h-9.724V96.6a31.44,31.44,0,0,1-8.464,5.507,23.2,23.2,0,0,1-9.423,2.035c-.307.01-.611.015-.915.015A25.587,25.587,0,0,1,72.755,100.61Zm1.32-37.052a18.031,18.031,0,0,0,0,25.38,17.947,17.947,0,0,0,30.672-12.69,17.374,17.374,0,0,0-5.221-12.69,18.007,18.007,0,0,0-25.451,0Zm126.043,36.811a28.3,28.3,0,0,1-10.2-10.176,27.832,27.832,0,0,1,0-28.012,28.321,28.321,0,0,1,10.2-10.176,27.359,27.359,0,0,1,14.108-3.771,25.369,25.369,0,0,1,16.926,5.986q3.358,2.756,9.843,12.21L201.5,88.937A17.363,17.363,0,0,0,214.226,94.2a18.486,18.486,0,0,0,11.1-3.71,34.531,34.531,0,0,0,8.823-9.576A133.639,133.639,0,0,1,245.917,64.4V49.074h9.605V55.9a27.043,27.043,0,0,1,18.006-7.662c.5-.018.984-.026,1.465-.026q12.328,0,18.284,7.688,6.3,8.141,6.3,20.59v27.175h-9.6V76.487q0-19.511-16.448-18.794-8.765.359-15.905,8.081a129.185,129.185,0,0,0-14.106,18.735q-1.44,2.513-2.041,3.351a42.019,42.019,0,0,1-11.643,11.913,29.188,29.188,0,0,1-29.714.6Zm1.322-36.811a17.379,17.379,0,0,0-5.222,12.69,20.138,20.138,0,0,0,.6,4.909l30.493-17.24a18.09,18.09,0,0,0-25.87-.359Zm162.721,39.864V87.5a145.924,145.924,0,0,1,9.605-14.247v30.168Zm63.264-.119V49.074h9.6V103.3Zm-181.508,0V87.381q2.522-5.028,9.605-14.485V103.3Zm-108.76,0V94.325h26.89q9.482,0,9.484-4.789a5.258,5.258,0,0,0-3.421-4.968,61.816,61.816,0,0,0-10.624-3.411,94.888,94.888,0,0,1-11.645-3.412,21.194,21.194,0,0,1-7.925-5.268,13.926,13.926,0,0,1-3.6-9.4,13.517,13.517,0,0,1,3.482-9.637q3.719-4.369,12.725-4.369h28.331v9.1h-25.09a20.047,20.047,0,0,0-6.722.957,3.73,3.73,0,0,0-2.642,3.833q-.119,2.993,3.181,4.549a61.779,61.779,0,0,0,10.5,3.35,116.047,116.047,0,0,1,11.825,3.712,21.978,21.978,0,0,1,8.044,5.386,13.581,13.581,0,0,1,3.541,9.456,13.925,13.925,0,0,1-3.541,9.578q-3.663,4.31-12.667,4.31Zm-15.363,0V49.074h9.6V103.3ZM409.419,42.848a5.87,5.87,0,0,1-1.8-4.31,6.143,6.143,0,0,1,6.243-6.224,5.894,5.894,0,0,1,4.321,1.8,6.011,6.011,0,0,1,1.8,4.428,6.14,6.14,0,0,1-6.122,6.105A6.035,6.035,0,0,1,409.419,42.848Zm-287.145,0a5.872,5.872,0,0,1-1.8-4.31,6.012,6.012,0,0,1,1.8-4.429,5.893,5.893,0,0,1,4.321-1.8,6.143,6.143,0,0,1,6.242,6.225,5.871,5.871,0,0,1-1.8,4.31,6.044,6.044,0,0,1-4.441,1.795A5.9,5.9,0,0,1,122.274,42.848Zm305.631,0a5.871,5.871,0,0,1-1.8-4.31,6.013,6.013,0,0,1,1.8-4.43,5.893,5.893,0,0,1,4.321-1.795,6.142,6.142,0,0,1,6.242,6.225,5.872,5.872,0,0,1-1.8,4.31,6.047,6.047,0,0,1-4.441,1.795A5.9,5.9,0,0,1,427.9,42.848Z" transform="translate(-4.982 -28.722)" fill="url(#linear-gradient)"/>
</svg>
