<svg xmlns="http://www.w3.org/2000/svg" width="1414" height="758.592" viewBox="0 0 1414 758.592">
  <path id="Union_3" data-name="Union 3" d="M410.258,758.592V749.4h9.175v9.188Zm-12.432,0V749.4H407v9.188Zm124.321-12.286v-9.188h9.175v9.188Zm-124.321,0v-9.188H407v9.188Zm-12.432,0v-9.188h9.175v9.188Zm-12.433,0v-9.188h9.175v9.188Zm62.161-12.285v-9.188H444.3v9.188Zm-12.432,0v-9.188h9.175v9.188Zm-37.3,0v-9.188h9.175v9.188Zm-12.433,0v-9.188h9.175v9.188ZM1317.8,721.735v-9.188h9.175v9.188Zm-372.962,0v-9.188h9.175v9.188Zm-547.012,0v-9.188H407v9.188Zm-12.432,0v-9.188h9.175v9.188Zm-12.433,0v-9.188h9.175v9.188Zm957.27-12.285v-9.188h9.175v9.188Zm-932.405,0v-9.188H407v9.188Zm-12.432,0v-9.188h9.175v9.188Zm-12.433,0v-9.188h9.175v9.188Zm969.7-12.285v-9.188h9.175v9.188Zm-12.433,0v-9.188h9.175v9.188Zm-932.405,0v-9.188H407v9.188Zm-12.432,0v-9.188h9.175v9.188Zm957.27-12.285v-9.188h9.175v9.188Zm-99.457,0v-9.188h9.176v9.188Zm-845.381,0v-9.188H407v9.188Zm-12.432,0v-9.188h9.175v9.188Zm969.7-12.285v-9.188h9.175v9.188Zm-944.838,0v-9.188h9.175v9.188Zm-12.432,0v-9.188H407v9.188Zm-12.432,0v-9.188h9.175v9.188Zm969.7-12.285v-9.188h9.175v9.188Zm-99.457,0v-9.188h9.176v9.188Zm-12.432,0v-9.188h9.176v9.188Zm-12.432,0v-9.188h9.175v9.188Zm-795.653,0v-9.188H444.3v9.188Zm-12.432,0v-9.188h9.175v9.188Zm-12.433,0v-9.188h9.175v9.188Zm-12.432,0v-9.188H407v9.188Zm-12.432,0v-9.188h9.175v9.188Zm957.27-12.285v-9.188h9.175v9.188Zm-87.026,0v-9.188h9.176v9.188Zm-12.432,0v-9.188h9.176v9.188Zm-12.432,0v-9.188h9.175v9.188Zm-12.432,0v-9.188h9.175v9.188Zm-87.024,0v-9.188h9.175v9.188Zm-696.2,0v-9.188H444.3v9.188Zm-12.432,0v-9.188h9.175v9.188Zm-12.433,0v-9.188h9.175v9.188Zm-12.432,0v-9.188H407v9.188Zm-12.432,0v-9.188h9.175v9.188Zm870.245-12.285v-9.188h9.176v9.188Zm-12.432,0v-9.188h9.176v9.188Zm-12.432,0v-9.188h9.175v9.188Zm-12.432,0v-9.188h9.175v9.188Zm-12.432,0v-9.188h9.175v9.188Zm-12.432,0v-9.188h9.176v9.188Zm-49.729,0v-9.188h9.175v9.188Zm-12.432,0v-9.188h9.175v9.188Zm-12.432,0v-9.188h9.175v9.188Zm-348.1,0v-9.188h9.175v9.188Zm-12.433,0v-9.188h9.175v9.188Zm-12.432,0v-9.188H755.1v9.188Zm-298.37,0v-9.188h9.175v9.188Zm-12.433,0v-9.188H444.3v9.188Zm-12.432,0v-9.188h9.175v9.188Zm-12.433,0v-9.188h9.175v9.188Zm-12.432,0v-9.188H407v9.188Zm-12.432,0v-9.188h9.175v9.188Zm-24.864,0v-9.188h9.175v9.188Zm907.542-12.286v-9.188h9.175v9.188Zm-12.433,0v-9.188h9.176v9.188Zm-12.432,0v-9.188h9.176v9.188Zm-12.432,0v-9.188h9.175v9.188Zm-12.432,0v-9.188h9.175v9.188Zm-12.432,0v-9.188h9.175v9.188Zm-12.432,0v-9.188h9.176v9.188Zm-12.433,0v-9.188h9.175v9.188Zm-12.432,0v-9.188h9.175v9.188Zm-12.432,0v-9.188h9.175v9.188Zm-12.433,0v-9.188h9.175v9.188Zm-12.432,0v-9.188h9.175v9.188Zm-12.432,0v-9.188h9.175v9.188Zm-335.666,0v-9.188H792.4v9.188Zm-12.432,0v-9.188h9.175v9.188Zm-12.433,0v-9.188h9.175v9.188Zm-12.432,0v-9.188H755.1v9.188Zm-285.938,0v-9.188h9.175v9.188Zm-12.432,0v-9.188h9.175v9.188Zm-12.433,0v-9.188H444.3v9.188Zm-12.432,0v-9.188h9.175v9.188Zm-12.433,0v-9.188h9.175v9.188Zm-12.432,0v-9.188H407v9.188Zm870.246-12.285v-9.188h9.175v9.188Zm-12.433,0v-9.188h9.176v9.188Zm-12.432,0v-9.188h9.176v9.188Zm-12.432,0v-9.188h9.175v9.188Zm-12.432,0v-9.188h9.175v9.188Zm-12.432,0v-9.188h9.175v9.188Zm-12.432,0v-9.188h9.176v9.188Zm-12.433,0v-9.188h9.175v9.188Zm-12.432,0v-9.188h9.175v9.188Zm-12.432,0v-9.188h9.175v9.188Zm-12.433,0v-9.188h9.175v9.188Zm-12.432,0v-9.188h9.175v9.188Zm-12.432,0v-9.188h9.175v9.188Zm-335.666,0v-9.188H792.4v9.188Zm-12.432,0v-9.188h9.175v9.188Zm-12.433,0v-9.188h9.175v9.188Zm-12.432,0v-9.188H755.1v9.188Zm-12.432,0v-9.188h9.175v9.188Zm-273.506,0v-9.188h9.175v9.188Zm-12.432,0v-9.188h9.175v9.188Zm-12.433,0v-9.188H444.3v9.188Zm-12.432,0v-9.188h9.175v9.188Zm-12.433,0v-9.188h9.175v9.188Zm-12.432,0v-9.188H407v9.188Zm-161.616,0v-9.188h9.175v9.188Zm1031.862-12.285v-9.188h9.175v9.188Zm-12.433,0v-9.188h9.176v9.188Zm-12.432,0v-9.188h9.176v9.188Zm-12.432,0v-9.188h9.175v9.188Zm-12.432,0v-9.188h9.175v9.188Zm-12.432,0v-9.188h9.175v9.188Zm-12.432,0v-9.188h9.176v9.188Zm-12.433,0v-9.188h9.175v9.188Zm-12.432,0v-9.188h9.175v9.188Zm-12.432,0v-9.188h9.175v9.188Zm-12.433,0v-9.188h9.175v9.188Zm-12.432,0v-9.188h9.175v9.188Zm-12.432,0v-9.188h9.175v9.188Zm-12.433,0v-9.188h9.175v9.188Zm-261.073,0v-9.188h9.175v9.188Zm-62.16,0v-9.188H792.4v9.188Zm-12.432,0v-9.188h9.175v9.188Zm-12.433,0v-9.188h9.175v9.188Zm-12.432,0v-9.188H755.1v9.188Zm-12.432,0v-9.188h9.175v9.188Zm-261.073,0v-9.188h9.175v9.188Zm-12.433,0v-9.188h9.175v9.188Zm-12.432,0v-9.188h9.175v9.188Zm-12.433,0v-9.188H444.3v9.188Zm-12.432,0v-9.188h9.175v9.188Zm-12.433,0v-9.188h9.175v9.188Zm-12.432,0v-9.188H407v9.188Zm-136.752,0v-9.188h9.175v9.188ZM1255.639,586.6v-9.188h9.176V586.6Zm-12.432,0v-9.188h9.176V586.6Zm-12.432,0v-9.188h9.175V586.6Zm-12.432,0v-9.188h9.175V586.6Zm-12.432,0v-9.188h9.175V586.6Zm-12.432,0v-9.188h9.176V586.6Zm-12.433,0v-9.188h9.175V586.6Zm-12.432,0v-9.188h9.175V586.6Zm-12.432,0v-9.188h9.175V586.6Zm-12.433,0v-9.188h9.175V586.6Zm-12.432,0v-9.188h9.175V586.6Zm-12.432,0v-9.188h9.175V586.6Zm-273.506,0v-9.188h9.175V586.6Zm-37.3,0v-9.188h9.174V586.6Zm-12.432,0v-9.188h9.175V586.6Zm-12.433,0v-9.188H792.4V586.6Zm-12.432,0v-9.188h9.175V586.6Zm-12.433,0v-9.188h9.175V586.6Zm-12.432,0v-9.188H755.1V586.6Zm-12.432,0v-9.188h9.175V586.6Zm-12.433,0v-9.188h9.175V586.6Zm-236.21,0v-9.188h9.175V586.6Zm-12.431,0v-9.188h9.175V586.6Zm-12.433,0v-9.188h9.175V586.6Zm-12.432,0v-9.188h9.175V586.6Zm-12.433,0v-9.188H444.3V586.6Zm-12.432,0v-9.188h9.175V586.6Zm-12.433,0v-9.188h9.175V586.6Zm-12.432,0v-9.188H407V586.6Zm-236.209,0v-9.188h9.175V586.6Zm-24.864,0v-9.188h9.175V586.6Zm1255.639-12.285v-9.188h9.175v9.188Zm-74.592,0v-9.188h9.175v9.188Zm-74.592,0v-9.188h9.176v9.188Zm-12.432,0v-9.188h9.175v9.188Zm-12.432,0v-9.188h9.175v9.188Zm-12.432,0v-9.188h9.175v9.188Zm-12.432,0v-9.188h9.176v9.188Zm-12.433,0v-9.188h9.175v9.188Zm-12.432,0v-9.188h9.175v9.188Zm-12.432,0v-9.188h9.175v9.188Zm-12.433,0v-9.188h9.175v9.188Zm-261.073,0v-9.188h9.176v9.188Zm-24.864,0v-9.188h9.175v9.188Zm-12.432,0v-9.188h9.175v9.188Zm-49.728,0v-9.188h9.175v9.188Zm-12.433,0v-9.188H792.4v9.188Zm-12.432,0v-9.188h9.175v9.188Zm-12.433,0v-9.188h9.175v9.188Zm-12.432,0v-9.188H755.1v9.188Zm-12.432,0v-9.188h9.175v9.188Zm-12.433,0v-9.188h9.175v9.188Zm-223.777,0v-9.188h9.175v9.188Zm-12.433,0v-9.188h9.175v9.188Zm-12.431,0v-9.188h9.175v9.188Zm-12.433,0v-9.188h9.175v9.188Zm-12.432,0v-9.188h9.175v9.188Zm-12.433,0v-9.188H444.3v9.188Zm-12.432,0v-9.188h9.175v9.188Zm-12.433,0v-9.188h9.175v9.188Zm-12.432,0v-9.188H407v9.188Zm-261.073,0v-9.188h9.175v9.188Zm-24.864,0v-9.188h9.175v9.188Zm1255.639-12.285v-9.188h9.175v9.188Zm-37.3,0v-9.188h9.175v9.188Zm-12.432,0v-9.188h9.175v9.188Zm-74.592,0v-9.188h9.176v9.188Zm-12.432,0v-9.188h9.175v9.188Zm-12.432,0v-9.188h9.175v9.188Zm-12.432,0v-9.188h9.175v9.188Zm-12.432,0v-9.188h9.176v9.188Zm-12.433,0v-9.188h9.175v9.188Zm-12.432,0v-9.188h9.175v9.188Zm-12.432,0v-9.188h9.175v9.188Zm-12.433,0v-9.188h9.175v9.188Zm-285.938,0v-9.188h9.175v9.188Zm-12.432,0v-9.188h9.175v9.188Zm-37.3,0v-9.188h9.174v9.188Zm-12.432,0v-9.188h9.175v9.188Zm-12.433,0v-9.188H792.4v9.188Zm-12.432,0v-9.188h9.175v9.188Zm-12.433,0v-9.188h9.175v9.188Zm-12.432,0v-9.188H755.1v9.188Zm-12.432,0v-9.188h9.175v9.188Zm-12.433,0v-9.188h9.175v9.188Zm-223.777,0v-9.188h9.175v9.188Zm-12.433,0v-9.188h9.175v9.188Zm-12.431,0v-9.188h9.175v9.188Zm-12.433,0v-9.188h9.175v9.188Zm-12.432,0v-9.188h9.175v9.188Zm-12.433,0v-9.188H444.3v9.188Zm-12.432,0v-9.188h9.175v9.188Zm-12.433,0v-9.188h9.175v9.188Zm-12.432,0v-9.188H407v9.188Zm-12.432,0v-9.188h9.175v9.188Zm-298.37,0v-9.188H96.2v9.188Zm1317.8-12.285v-9.188H1414v9.188Zm-174.049,0v-9.188h9.175v9.188Zm-37.3,0v-9.188h9.176v9.188Zm-12.433,0v-9.188h9.175v9.188Zm-12.432,0v-9.188h9.175v9.188Zm-12.432,0v-9.188h9.175v9.188Zm-298.371,0v-9.188h9.175v9.188Zm-37.3,0v-9.188h9.175v9.188Zm-12.432,0v-9.188h9.174v9.188Zm-12.432,0v-9.188h9.175v9.188Zm-12.433,0v-9.188H792.4v9.188Zm-12.432,0v-9.188h9.175v9.188Zm-12.433,0v-9.188h9.175v9.188Zm-12.432,0v-9.188H755.1v9.188Zm-12.432,0v-9.188h9.175v9.188Zm-12.433,0v-9.188h9.175v9.188Zm-211.345,0v-9.188h9.175v9.188Zm-12.432,0v-9.188h9.175v9.188Zm-12.433,0v-9.188h9.175v9.188Zm-12.431,0v-9.188h9.175v9.188Zm-12.433,0v-9.188h9.175v9.188Zm-12.432,0v-9.188h9.175v9.188Zm-12.433,0v-9.188H444.3v9.188Zm-12.432,0v-9.188h9.175v9.188Zm-12.433,0v-9.188h9.175v9.188Zm-12.432,0v-9.188H407v9.188Zm-12.432,0v-9.188h9.175v9.188Zm-12.433,0v-9.188h9.175v9.188Zm857.814-12.285v-9.188h9.175v9.188Zm-24.864,0v-9.188h9.175v9.188Zm-12.432,0v-9.188h9.176v9.188Zm-12.433,0v-9.188h9.175v9.188Zm-335.666,0v-9.188h9.175v9.188Zm-24.864,0v-9.188h9.175v9.188Zm-12.432,0v-9.188h9.174v9.188Zm-12.432,0v-9.188h9.175v9.188Zm-12.433,0v-9.188H792.4v9.188Zm-12.432,0v-9.188h9.175v9.188Zm-12.433,0v-9.188h9.175v9.188Zm-12.432,0v-9.188H755.1v9.188Zm-12.432,0v-9.188h9.175v9.188Zm-223.778,0v-9.188h9.175v9.188Zm-12.432,0v-9.188h9.175v9.188Zm-12.433,0v-9.188h9.175v9.188Zm-12.431,0v-9.188h9.175v9.188Zm-12.433,0v-9.188h9.175v9.188Zm-12.432,0v-9.188h9.175v9.188Zm-12.433,0v-9.188H444.3v9.188Zm-12.432,0v-9.188h9.175v9.188Zm-12.433,0v-9.188h9.175v9.188Zm-12.432,0v-9.188H407v9.188Zm-12.432,0v-9.188h9.175v9.188Zm-12.433,0v-9.188h9.175v9.188Zm932.405-12.285v-9.188h9.175v9.188Zm-12.431,0v-9.188h9.175v9.188Zm-24.864,0v-9.188h9.175v9.188Zm-12.433,0v-9.188h9.176v9.188Zm-12.432,0v-9.188h9.176v9.188Zm-87.024,0v-9.188h9.175v9.188Zm-12.433,0v-9.188h9.175v9.188Zm-12.432,0v-9.188h9.175v9.188Zm-310.8,0v-9.188h9.175v9.188Zm-12.432,0v-9.188h9.174v9.188Zm-12.432,0v-9.188h9.175v9.188Zm-12.433,0v-9.188H792.4v9.188Zm-12.432,0v-9.188h9.175v9.188Zm-12.433,0v-9.188h9.175v9.188Zm-12.432,0v-9.188H755.1v9.188Zm-12.432,0v-9.188h9.175v9.188Zm-12.433,0v-9.188h9.175v9.188Zm-198.913,0v-9.188h9.175v9.188Zm-12.433,0v-9.188h9.175v9.188Zm-12.432,0v-9.188h9.175v9.188Zm-12.433,0v-9.188h9.175v9.188Zm-12.431,0v-9.188h9.175v9.188Zm-12.433,0v-9.188h9.175v9.188Zm-12.432,0v-9.188h9.175v9.188Zm-12.433,0v-9.188H444.3v9.188Zm-12.432,0v-9.188h9.175v9.188Zm-12.433,0v-9.188h9.175v9.188Zm-12.432,0v-9.188H407v9.188Zm-12.432,0v-9.188h9.175v9.188Zm-12.433,0v-9.188h9.175v9.188Zm-12.432,0v-9.188h9.175v9.188Zm932.406-12.285V503.7h9.175v9.188Zm-12.433,0V503.7h9.175v9.188Zm-37.3,0V503.7h9.176v9.188Zm-12.432,0V503.7h9.175v9.188Zm-12.432,0V503.7h9.175v9.188Zm-49.728,0V503.7h9.175v9.188Zm-49.728,0V503.7h9.175v9.188Zm-12.433,0V503.7h9.175v9.188Zm-12.432,0V503.7h9.175v9.188Zm-12.432,0V503.7h9.175v9.188Zm-198.914,0V503.7h9.176v9.188Zm-62.161,0V503.7h9.175v9.188Zm-12.432,0V503.7h9.174v9.188Zm-12.432,0V503.7h9.175v9.188Zm-12.433,0V503.7H792.4v9.188Zm-12.432,0V503.7h9.175v9.188Zm-12.433,0V503.7h9.175v9.188Zm-12.432,0V503.7H755.1v9.188Zm-12.432,0V503.7h9.175v9.188Zm-12.433,0V503.7h9.175v9.188Zm-198.913,0V503.7h9.175v9.188Zm-12.433,0V503.7h9.175v9.188Zm-12.432,0V503.7h9.175v9.188Zm-12.433,0V503.7h9.175v9.188Zm-12.431,0V503.7h9.175v9.188Zm-12.433,0V503.7h9.175v9.188Zm-12.432,0V503.7h9.175v9.188Zm-12.433,0V503.7H444.3v9.188Zm-12.432,0V503.7h9.175v9.188Zm-12.433,0V503.7h9.175v9.188Zm-12.432,0V503.7H407v9.188Zm-12.432,0V503.7h9.175v9.188Zm-12.433,0V503.7h9.175v9.188Zm-12.432,0V503.7h9.175v9.188ZM1268.072,500.6v-9.188h9.175V500.6Zm-12.433,0v-9.188h9.176V500.6Zm-12.432,0v-9.188h9.176V500.6Zm-12.432,0v-9.188h9.175V500.6Zm-12.432,0v-9.188h9.175V500.6Zm-12.432,0v-9.188h9.175V500.6Zm-12.432,0v-9.188h9.176V500.6Zm-24.864,0v-9.188h9.175V500.6Zm-24.865,0v-9.188h9.175V500.6Zm-12.432,0v-9.188h9.175V500.6Zm-49.728,0v-9.188h9.175V500.6Zm-12.433,0v-9.188h9.176V500.6Zm-248.641,0v-9.188h9.175V500.6Zm-12.432,0v-9.188h9.174V500.6Zm-12.432,0v-9.188h9.175V500.6Zm-12.433,0v-9.188H792.4V500.6Zm-12.432,0v-9.188h9.175V500.6Zm-12.433,0v-9.188h9.175V500.6Zm-12.432,0v-9.188H755.1V500.6Zm-12.432,0v-9.188h9.175V500.6Zm-12.433,0v-9.188h9.175V500.6Zm-211.345,0v-9.188h9.175V500.6Zm-12.432,0v-9.188h9.175V500.6Zm-12.433,0v-9.188h9.175V500.6Zm-12.431,0v-9.188h9.175V500.6Zm-12.433,0v-9.188h9.175V500.6Zm-12.432,0v-9.188h9.175V500.6Zm-12.433,0v-9.188H444.3V500.6Zm-12.432,0v-9.188h9.175V500.6Zm-12.433,0v-9.188h9.175V500.6Zm-12.432,0v-9.188H407V500.6Zm-12.432,0v-9.188h9.175V500.6Zm-12.433,0v-9.188h9.175V500.6Zm-12.432,0v-9.188h9.175V500.6Zm-12.432,0v-9.188h9.175V500.6Zm994.566-12.285v-9.188h9.175v9.188Zm-111.889,0v-9.188h9.175v9.188Zm-24.864,0v-9.188h9.175v9.188Zm-12.432,0v-9.188h9.176v9.188Zm-12.433,0v-9.188h9.175v9.188Zm-12.432,0v-9.188h9.175v9.188Zm-24.865,0v-9.188h9.175v9.188Zm-12.432,0v-9.188h9.175v9.188Zm-12.432,0v-9.188h9.175v9.188Zm-12.433,0v-9.188h9.175v9.188Zm-12.432,0v-9.188h9.175v9.188Zm-24.865,0v-9.188h9.176v9.188Zm-12.431,0v-9.188h9.175v9.188Zm-236.21,0v-9.188h9.175v9.188Zm-12.432,0v-9.188h9.174v9.188Zm-12.432,0v-9.188h9.175v9.188Zm-12.433,0v-9.188H792.4v9.188Zm-12.432,0v-9.188h9.175v9.188Zm-12.433,0v-9.188h9.175v9.188Zm-12.432,0v-9.188H755.1v9.188Zm-12.432,0v-9.188h9.175v9.188Zm-12.433,0v-9.188h9.175v9.188Zm-12.432,0v-9.188H717.8v9.188Zm-223.778,0v-9.188h9.175v9.188Zm-12.431,0v-9.188h9.175v9.188Zm-12.433,0v-9.188h9.175v9.188Zm-12.432,0v-9.188h9.175v9.188Zm-12.433,0v-9.188H444.3v9.188Zm-12.432,0v-9.188h9.175v9.188Zm-12.433,0v-9.188h9.175v9.188Zm-12.432,0v-9.188H407v9.188Zm-12.432,0v-9.188h9.175v9.188Zm-12.433,0v-9.188h9.175v9.188Zm-12.432,0v-9.188h9.175v9.188Zm-12.432,0v-9.188h9.175v9.188Zm969.7-12.285v-9.188h9.175v9.188Zm-136.753,0v-9.188h9.175v9.188Zm-12.432,0v-9.188h9.175v9.188Zm-12.432,0v-9.188h9.175v9.188Zm-12.433,0v-9.188h9.175v9.188Zm-12.432,0v-9.188h9.175v9.188Zm-12.432,0v-9.188h9.175v9.188Zm-12.433,0v-9.188h9.175v9.188Zm-12.432,0v-9.188h9.175v9.188Zm-37.3,0v-9.188h9.175v9.188Zm-223.778,0v-9.188h9.175v9.188Zm-12.432,0v-9.188h9.175v9.188Zm-12.432,0v-9.188h9.174v9.188Zm-12.432,0v-9.188h9.175v9.188Zm-12.433,0v-9.188H792.4v9.188Zm-12.432,0v-9.188h9.175v9.188Zm-12.433,0v-9.188h9.175v9.188Zm-12.432,0v-9.188H755.1v9.188Zm-12.432,0v-9.188h9.175v9.188Zm-12.433,0v-9.188h9.175v9.188Zm-12.432,0v-9.188H717.8v9.188Zm-12.433,0v-9.188h9.175v9.188Zm-223.776,0v-9.188h9.175v9.188Zm-12.433,0v-9.188h9.175v9.188Zm-12.432,0v-9.188h9.175v9.188Zm-12.433,0v-9.188H444.3v9.188Zm-12.432,0v-9.188h9.175v9.188Zm-12.433,0v-9.188h9.175v9.188Zm-12.432,0v-9.188H407v9.188Zm-12.432,0v-9.188h9.175v9.188Zm-12.433,0v-9.188h9.175v9.188Zm-12.432,0v-9.188h9.175v9.188Zm-62.161,0v-9.188h9.175v9.188Zm832.949-12.285v-9.188h9.175v9.188Zm-12.432,0v-9.188h9.175v9.188Zm-12.433,0v-9.188h9.175v9.188Zm-37.3,0v-9.188h9.176v9.188Zm-12.431,0v-9.188h9.175v9.188Zm-12.433,0v-9.188h9.175v9.188Zm-198.913,0v-9.188h9.175v9.188Zm-12.433,0v-9.188h9.175v9.188Zm-12.432,0v-9.188h9.175v9.188Zm-12.432,0v-9.188h9.174v9.188Zm-12.432,0v-9.188h9.175v9.188Zm-12.433,0v-9.188H792.4v9.188Zm-12.432,0v-9.188h9.175v9.188Zm-12.433,0v-9.188h9.175v9.188Zm-12.432,0v-9.188H755.1v9.188Zm-12.432,0v-9.188h9.175v9.188Zm-12.433,0v-9.188h9.175v9.188Zm-12.432,0v-9.188H717.8v9.188Zm-248.641,0v-9.188h9.175v9.188Zm-12.432,0v-9.188h9.175v9.188Zm-12.433,0v-9.188H444.3v9.188Zm-12.432,0v-9.188h9.175v9.188Zm-12.433,0v-9.188h9.175v9.188Zm-12.432,0v-9.188H407v9.188Zm-12.432,0v-9.188h9.175v9.188Zm-12.433,0v-9.188h9.175v9.188Zm-12.432,0v-9.188h9.175v9.188Zm944.837-12.285v-9.188h9.175v9.188Zm-62.16,0v-9.188h9.176v9.188Zm-99.457,0v-9.188h9.175v9.188Zm-12.432,0v-9.188h9.175v9.188Zm-12.432,0v-9.188h9.175v9.188Zm-49.729,0v-9.188h9.176v9.188Zm-12.431,0v-9.188h9.175v9.188Zm-74.593,0v-9.188h9.175v9.188Zm-124.321,0v-9.188h9.175v9.188Zm-12.432,0v-9.188h9.175v9.188Zm-12.433,0v-9.188h9.175v9.188Zm-12.432,0v-9.188h9.175v9.188Zm-12.432,0v-9.188h9.174v9.188Zm-12.432,0v-9.188h9.175v9.188Zm-12.433,0v-9.188H792.4v9.188Zm-12.432,0v-9.188h9.175v9.188Zm-12.433,0v-9.188h9.175v9.188Zm-12.432,0v-9.188H755.1v9.188Zm-12.432,0v-9.188h9.175v9.188Zm-12.433,0v-9.188h9.175v9.188Zm-12.432,0v-9.188H717.8v9.188Zm-12.433,0v-9.188h9.175v9.188Zm-37.3,0v-9.188h9.175v9.188Zm-12.433,0v-9.188h9.175v9.188Zm-12.432,0v-9.188h9.175v9.188Zm-198.914,0v-9.188H444.3v9.188Zm-12.432,0v-9.188h9.175v9.188Zm-12.433,0v-9.188h9.175v9.188Zm-12.432,0v-9.188H407v9.188Zm-12.432,0v-9.188h9.175v9.188Zm-12.433,0v-9.188h9.175v9.188Zm969.7-12.285v-9.188h9.175v9.188Zm-74.593,0v-9.188h9.175v9.188Zm-12.433,0v-9.188h9.176v9.188Zm-99.455,0v-9.188h9.175v9.188Zm-99.457,0v-9.188h9.175v9.188Zm-74.593,0v-9.188h9.175v9.188Zm-12.433,0v-9.188h9.175v9.188Zm-12.432,0v-9.188h9.175v9.188Zm-99.457,0v-9.188h9.175v9.188Zm-12.432,0v-9.188h9.175v9.188Zm-12.433,0v-9.188h9.175v9.188Zm-12.432,0v-9.188h9.175v9.188Zm-12.432,0v-9.188h9.174v9.188Zm-12.432,0v-9.188h9.175v9.188Zm-12.433,0v-9.188H792.4v9.188Zm-12.432,0v-9.188h9.175v9.188Zm-12.433,0v-9.188h9.175v9.188Zm-12.432,0v-9.188H755.1v9.188Zm-12.432,0v-9.188h9.175v9.188Zm-12.433,0v-9.188h9.175v9.188Zm-12.432,0v-9.188H717.8v9.188Zm-12.433,0v-9.188h9.175v9.188Zm-12.432,0v-9.188h9.175v9.188Zm-12.432,0v-9.188h9.175v9.188Zm-12.432,0v-9.188h9.175v9.188Zm-12.433,0v-9.188h9.175v9.188Zm-12.432,0v-9.188h9.175v9.188Zm-12.433,0v-9.188h9.175v9.188Zm-198.913,0v-9.188h9.175v9.188Zm-12.433,0v-9.188h9.175v9.188Zm-12.432,0v-9.188H407v9.188Zm-12.432,0v-9.188h9.175v9.188Zm-12.433,0v-9.188h9.175v9.188Zm-12.432,0v-9.188h9.175v9.188Zm-12.432,0v-9.188h9.175v9.188Zm808.085-12.285V417.7h9.175v9.188Zm-24.865,0V417.7h9.175v9.188Zm-37.3,0V417.7h9.175v9.188Zm-12.432,0V417.7h9.175v9.188Zm-24.864,0V417.7h9.175v9.188Zm-74.593,0V417.7h9.175v9.188Zm-12.433,0V417.7h9.175v9.188Zm-87.024,0V417.7h9.176v9.188Zm-12.432,0V417.7h9.175v9.188Zm-12.433,0V417.7h9.175v9.188Zm-24.864,0V417.7h9.175v9.188Zm-12.432,0V417.7h9.175v9.188Zm-12.432,0V417.7h9.174v9.188Zm-12.432,0V417.7h9.175v9.188Zm-12.433,0V417.7H792.4v9.188Zm-12.432,0V417.7h9.175v9.188Zm-12.433,0V417.7h9.175v9.188Zm-12.432,0V417.7H755.1v9.188Zm-12.432,0V417.7h9.175v9.188Zm-12.433,0V417.7h9.175v9.188Zm-12.432,0V417.7H717.8v9.188Zm-12.433,0V417.7h9.175v9.188Zm-12.432,0V417.7h9.175v9.188Zm-12.432,0V417.7h9.175v9.188Zm-12.432,0V417.7h9.175v9.188Zm-12.433,0V417.7h9.175v9.188Zm-12.432,0V417.7h9.175v9.188Zm-12.433,0V417.7h9.175v9.188Zm-211.345,0V417.7h9.175v9.188Zm-12.432,0V417.7H407v9.188Zm-12.432,0V417.7h9.175v9.188Zm-49.728,0V417.7h9.175v9.188ZM1330.231,414.6v-9.188h9.175V414.6Zm-99.456,0v-9.188h9.175V414.6Zm-74.592,0v-9.188h9.175V414.6Zm-12.433,0v-9.188h9.175V414.6Zm-49.728,0v-9.188h9.175V414.6Zm-12.432,0v-9.188h9.175V414.6Zm-12.433,0v-9.188h9.176V414.6Zm-12.431,0v-9.188h9.175V414.6Zm-24.865,0v-9.188h9.175V414.6Zm-49.728,0v-9.188h9.175V414.6Zm-12.433,0v-9.188h9.175V414.6Zm-124.32,0v-9.188h9.175V414.6Zm-24.864,0v-9.188h9.175V414.6Zm-12.432,0v-9.188h9.174V414.6Zm-12.432,0v-9.188h9.175V414.6Zm-12.433,0v-9.188H792.4V414.6Zm-12.432,0v-9.188h9.175V414.6Zm-12.433,0v-9.188h9.175V414.6Zm-12.432,0v-9.188H755.1V414.6Zm-12.432,0v-9.188h9.175V414.6Zm-12.433,0v-9.188h9.175V414.6Zm-12.432,0v-9.188H717.8V414.6Zm-12.433,0v-9.188h9.175V414.6Zm-12.432,0v-9.188h9.175V414.6Zm-12.432,0v-9.188h9.175V414.6Zm-12.432,0v-9.188h9.175V414.6Zm-12.433,0v-9.188h9.175V414.6Zm-12.432,0v-9.188h9.175V414.6Zm-12.433,0v-9.188h9.175V414.6Zm-12.432,0v-9.188h9.175V414.6Zm-24.864,0v-9.188h9.175V414.6Zm-149.185,0v-9.188H444.3V414.6Zm-99.456,0v-9.188h9.175V414.6Zm-12.433,0v-9.188h9.175V414.6Zm919.974-12.286v-9.188h9.176v9.188Zm-99.457,0v-9.188h9.175v9.188Zm-49.728,0v-9.188h9.175v9.188Zm-12.432,0v-9.188h9.175v9.188Zm-12.433,0v-9.188h9.176v9.188Zm-12.431,0v-9.188h9.175v9.188Zm-12.433,0v-9.188h9.175v9.188Zm-62.16,0v-9.188h9.175v9.188Zm-12.433,0v-9.188h9.175v9.188Zm-12.432,0v-9.188h9.175v9.188Zm-87.024,0v-9.188h9.175v9.188Zm-12.433,0v-9.188h9.175v9.188Zm-12.432,0v-9.188h9.175v9.188Zm-12.433,0v-9.188h9.175v9.188Zm-24.863,0v-9.188h9.174v9.188Zm-12.432,0v-9.188h9.175v9.188Zm-12.433,0v-9.188H792.4v9.188Zm-12.432,0v-9.188h9.175v9.188Zm-12.433,0v-9.188h9.175v9.188Zm-12.432,0v-9.188H755.1v9.188Zm-12.432,0v-9.188h9.175v9.188Zm-12.433,0v-9.188h9.175v9.188Zm-12.432,0v-9.188H717.8v9.188Zm-12.433,0v-9.188h9.175v9.188Zm-12.432,0v-9.188h9.175v9.188Zm-12.432,0v-9.188h9.175v9.188Zm-12.432,0v-9.188h9.175v9.188Zm-12.433,0v-9.188h9.175v9.188Zm-12.432,0v-9.188h9.175v9.188Zm-12.433,0v-9.188h9.175v9.188Zm-12.432,0v-9.188h9.175v9.188Zm-37.3,0v-9.188h9.175v9.188Zm-149.185,0v-9.188h9.175v9.188Zm-87.024,0v-9.188h9.175v9.188Zm-12.433,0v-9.188h9.175v9.188Zm-12.432,0v-9.188h9.175v9.188Zm-12.433,0v-9.188h9.175v9.188Zm-12.432,0v-9.188h9.175v9.188Zm857.813-12.285v-9.188h9.175v9.188Zm-49.728,0v-9.188h9.175v9.188Zm-12.432,0v-9.188h9.175v9.188Zm-12.433,0v-9.188h9.176v9.188Zm-12.431,0v-9.188h9.175v9.188Zm-12.433,0v-9.188h9.175v9.188Zm-49.728,0v-9.188h9.175v9.188Zm-12.432,0v-9.188h9.175v9.188Zm-12.433,0v-9.188h9.175v9.188Zm-12.432,0v-9.188h9.175v9.188Zm-74.592,0v-9.188h9.176v9.188Zm-12.432,0v-9.188h9.175v9.188Zm-12.433,0v-9.188h9.175v9.188Zm-12.432,0v-9.188h9.175v9.188Zm-12.433,0v-9.188h9.175v9.188Zm-24.863,0v-9.188h9.174v9.188Zm-12.432,0v-9.188h9.175v9.188Zm-12.433,0v-9.188H792.4v9.188Zm-12.432,0v-9.188h9.175v9.188Zm-12.433,0v-9.188h9.175v9.188Zm-12.432,0v-9.188H755.1v9.188Zm-12.432,0v-9.188h9.175v9.188Zm-12.433,0v-9.188h9.175v9.188Zm-12.432,0v-9.188H717.8v9.188Zm-12.433,0v-9.188h9.175v9.188Zm-12.432,0v-9.188h9.175v9.188Zm-12.432,0v-9.188h9.175v9.188Zm-12.432,0v-9.188h9.175v9.188Zm-12.433,0v-9.188h9.175v9.188Zm-12.432,0v-9.188h9.175v9.188Zm-12.433,0v-9.188h9.175v9.188Zm-12.432,0v-9.188h9.175v9.188Zm-198.914,0v-9.188h9.175v9.188Zm-24.863,0v-9.188h9.175v9.188Zm-12.433,0v-9.188h9.175v9.188Zm-12.432,0v-9.188h9.175v9.188Zm-49.728,0v-9.188h9.175v9.188Zm-12.433,0v-9.188h9.175v9.188Zm-12.432,0v-9.188h9.175v9.188Zm-12.433,0v-9.188h9.175v9.188Zm-12.431,0v-9.188h9.175v9.188Zm-198.914,0v-9.188h9.175v9.188Zm1031.862-12.284V368.56h9.175v9.188Zm-12.432,0V368.56h9.175v9.188Zm-12.433,0V368.56h9.176v9.188Zm-12.431,0V368.56h9.175v9.188Zm-12.433,0V368.56h9.175v9.188Zm-12.432,0V368.56h9.175v9.188Zm-24.864,0V368.56h9.176v9.188Zm-12.432,0V368.56h9.175v9.188Zm-12.432,0V368.56h9.175v9.188Zm-12.433,0V368.56h9.175v9.188Zm-12.432,0V368.56h9.175v9.188Zm-62.161,0V368.56h9.176v9.188Zm-12.432,0V368.56h9.176v9.188Zm-12.432,0V368.56h9.175v9.188Zm-12.433,0V368.56h9.175v9.188Zm-12.432,0V368.56h9.175v9.188Zm-12.433,0V368.56h9.175v9.188Zm-24.863,0V368.56h9.174v9.188Zm-12.432,0V368.56h9.175v9.188Zm-12.433,0V368.56H792.4v9.188Zm-12.432,0V368.56h9.175v9.188Zm-12.433,0V368.56h9.175v9.188Zm-12.432,0V368.56H755.1v9.188Zm-12.432,0V368.56h9.175v9.188Zm-12.433,0V368.56h9.175v9.188Zm-12.432,0V368.56H717.8v9.188Zm-12.433,0V368.56h9.175v9.188Zm-12.432,0V368.56h9.175v9.188Zm-12.432,0V368.56h9.175v9.188Zm-12.432,0V368.56h9.175v9.188Zm-12.433,0V368.56h9.175v9.188Zm-12.432,0V368.56h9.175v9.188Zm-12.433,0V368.56h9.175v9.188Zm-12.432,0V368.56h9.175v9.188Zm-248.642,0V368.56h9.175v9.188Zm-12.432,0V368.56h9.175v9.188Zm-12.432,0V368.56h9.175v9.188Zm-12.433,0V368.56h9.175v9.188Zm-49.729,0V368.56h9.175v9.188Zm-12.431,0V368.56h9.175v9.188Zm-211.345,0V368.56H58.9v9.188Zm-12.433,0V368.56h9.175v9.188Zm1118.887-12.286v-9.188h9.175v9.188Zm-12.433,0v-9.188h9.175v9.188Zm-24.864,0v-9.188h9.175v9.188Zm-12.433,0v-9.188h9.175v9.188Zm-12.432,0v-9.188h9.175v9.188Zm-12.432,0v-9.188h9.175v9.188Zm-12.433,0v-9.188h9.176v9.188Zm-12.431,0v-9.188h9.175v9.188Zm-12.433,0v-9.188h9.175v9.188Zm-12.432,0v-9.188h9.175v9.188Zm-12.432,0v-9.188h9.175v9.188Zm-12.432,0v-9.188h9.176v9.188Zm-12.432,0v-9.188h9.175v9.188Zm-12.432,0v-9.188h9.175v9.188Zm-12.433,0v-9.188h9.175v9.188Zm-12.432,0v-9.188h9.175v9.188Zm-12.432,0v-9.188h9.175v9.188Zm-49.729,0v-9.188h9.176v9.188Zm-12.432,0v-9.188h9.176v9.188Zm-12.432,0v-9.188h9.175v9.188Zm-12.433,0v-9.188h9.175v9.188Zm-12.432,0v-9.188h9.175v9.188Zm-12.433,0v-9.188h9.175v9.188Zm-12.432,0v-9.188h9.175v9.188Zm-24.863,0v-9.188h9.175v9.188Zm-12.433,0v-9.188H792.4v9.188Zm-12.432,0v-9.188h9.175v9.188Zm-12.433,0v-9.188h9.175v9.188Zm-12.432,0v-9.188H755.1v9.188Zm-12.432,0v-9.188h9.175v9.188Zm-12.433,0v-9.188h9.175v9.188Zm-12.432,0v-9.188H717.8v9.188Zm-12.433,0v-9.188h9.175v9.188Zm-12.432,0v-9.188h9.175v9.188Zm-12.432,0v-9.188h9.175v9.188Zm-12.432,0v-9.188h9.175v9.188Zm-12.433,0v-9.188h9.175v9.188Zm-12.432,0v-9.188h9.175v9.188Zm-12.433,0v-9.188h9.175v9.188Zm-12.432,0v-9.188h9.175v9.188Zm-236.21,0v-9.188h9.175v9.188Zm-99.457,0v-9.188h9.175v9.188Zm-12.431,0v-9.188h9.175v9.188Zm-12.433,0v-9.188h9.175v9.188Zm-12.432,0v-9.188h9.175v9.188Zm895.109-12.285v-9.188h9.175v9.188Zm-12.432,0v-9.188h9.175v9.188Zm-12.433,0v-9.188h9.175v9.188Zm-12.432,0v-9.188h9.175v9.188Zm-12.432,0v-9.188h9.175v9.188Zm-12.433,0v-9.188h9.176v9.188Zm-12.431,0v-9.188h9.175v9.188Zm-12.433,0v-9.188h9.175v9.188Zm-12.432,0v-9.188h9.175v9.188Zm-12.432,0v-9.188h9.175v9.188Zm-12.432,0v-9.188h9.176v9.188Zm-12.432,0v-9.188h9.175v9.188Zm-12.432,0v-9.188h9.175v9.188Zm-12.433,0v-9.188h9.175v9.188Zm-12.432,0v-9.188h9.175v9.188Zm-12.432,0v-9.188h9.175v9.188Zm-12.433,0v-9.188h9.175v9.188Zm-12.432,0v-9.188h9.175v9.188Zm-12.433,0v-9.188h9.175v9.188Zm-12.432,0v-9.188h9.176v9.188Zm-12.432,0v-9.188h9.176v9.188Zm-24.864,0v-9.188h9.175v9.188Zm-12.432,0v-9.188h9.175v9.188Zm-12.433,0v-9.188h9.175v9.188Zm-12.432,0v-9.188h9.175v9.188Zm-24.863,0v-9.188h9.175v9.188Zm-12.433,0v-9.188H792.4v9.188Zm-12.432,0v-9.188h9.175v9.188Zm-12.433,0v-9.188h9.175v9.188Zm-12.432,0v-9.188H755.1v9.188Zm-12.432,0v-9.188h9.175v9.188Zm-12.433,0v-9.188h9.175v9.188Zm-12.432,0v-9.188H717.8v9.188Zm-12.433,0v-9.188h9.175v9.188Zm-12.432,0v-9.188h9.175v9.188Zm-12.432,0v-9.188h9.175v9.188Zm-12.432,0v-9.188h9.175v9.188Zm-12.433,0v-9.188h9.175v9.188Zm-12.432,0v-9.188h9.175v9.188Zm-12.433,0v-9.188h9.175v9.188Zm-261.073,0v-9.188h9.175v9.188Zm-12.432,0v-9.188h9.175v9.188Zm-74.593,0v-9.188h9.175v9.188Zm-12.431,0v-9.188h9.175v9.188Zm-12.433,0v-9.188h9.175v9.188Zm-24.864,0v-9.188h9.175v9.188Zm957.27-12.285V331.7h9.175v9.188Zm-37.3,0V331.7h9.175v9.188Zm-12.432,0V331.7h9.175v9.188Zm-12.432,0V331.7h9.175v9.188Zm-12.433,0V331.7h9.175v9.188Zm-12.432,0V331.7h9.175v9.188Zm-12.432,0V331.7h9.175v9.188Zm-12.433,0V331.7h9.176v9.188Zm-12.431,0V331.7h9.175v9.188Zm-12.433,0V331.7h9.175v9.188Zm-12.432,0V331.7h9.175v9.188Zm-12.432,0V331.7h9.175v9.188Zm-12.432,0V331.7h9.176v9.188Zm-12.432,0V331.7h9.175v9.188Zm-12.432,0V331.7h9.175v9.188Zm-12.433,0V331.7h9.175v9.188Zm-12.432,0V331.7h9.175v9.188Zm-12.432,0V331.7h9.175v9.188Zm-12.433,0V331.7h9.175v9.188Zm-12.432,0V331.7h9.175v9.188Zm-12.433,0V331.7h9.175v9.188Zm-12.432,0V331.7h9.176v9.188Zm-12.432,0V331.7h9.176v9.188Zm-12.432,0V331.7h9.175v9.188Zm-24.865,0V331.7h9.175v9.188Zm-12.433,0V331.7h9.175v9.188Zm-12.432,0V331.7h9.175v9.188Zm-12.432,0V331.7h9.174v9.188Zm-12.432,0V331.7h9.175v9.188Zm-12.433,0V331.7H792.4v9.188Zm-12.432,0V331.7h9.175v9.188Zm-12.433,0V331.7h9.175v9.188Zm-12.432,0V331.7H755.1v9.188Zm-12.432,0V331.7h9.175v9.188Zm-12.433,0V331.7h9.175v9.188Zm-12.432,0V331.7H717.8v9.188Zm-12.433,0V331.7h9.175v9.188Zm-12.432,0V331.7h9.175v9.188Zm-12.432,0V331.7h9.175v9.188Zm-12.432,0V331.7h9.175v9.188Zm-12.433,0V331.7h9.175v9.188Zm-12.432,0V331.7h9.175v9.188Zm-24.864,0V331.7h9.175v9.188Zm-261.073,0V331.7h9.175v9.188Zm-12.432,0V331.7h9.175v9.188Zm-24.865,0V331.7h9.175v9.188Zm-12.433,0V331.7h9.175v9.188Zm-12.432,0V331.7h9.175v9.188Zm-12.433,0V331.7h9.175v9.188Zm-12.431,0V331.7h9.175v9.188Zm-12.433,0V331.7h9.175v9.188Zm-12.432,0V331.7h9.175v9.188Zm944.837-12.285v-9.188h9.175v9.188Zm-37.3,0v-9.188h9.175v9.188Zm-12.432,0v-9.188h9.175v9.188Zm-12.432,0v-9.188h9.175v9.188Zm-12.433,0v-9.188h9.175v9.188Zm-12.432,0v-9.188h9.175v9.188Zm-12.432,0v-9.188h9.175v9.188Zm-12.433,0v-9.188h9.176v9.188Zm-12.431,0v-9.188h9.175v9.188Zm-12.433,0v-9.188h9.175v9.188Zm-12.432,0v-9.188h9.175v9.188Zm-12.432,0v-9.188h9.175v9.188Zm-12.432,0v-9.188h9.176v9.188Zm-12.432,0v-9.188h9.175v9.188Zm-12.432,0v-9.188h9.175v9.188Zm-12.433,0v-9.188h9.175v9.188Zm-12.432,0v-9.188h9.175v9.188Zm-12.432,0v-9.188h9.175v9.188Zm-12.433,0v-9.188h9.175v9.188Zm-12.432,0v-9.188h9.175v9.188Zm-12.433,0v-9.188h9.175v9.188Zm-12.432,0v-9.188h9.176v9.188Zm-12.432,0v-9.188h9.176v9.188Zm-12.432,0v-9.188h9.175v9.188Zm-12.433,0v-9.188h9.175v9.188Zm-12.432,0v-9.188h9.175v9.188Zm-12.433,0v-9.188h9.175v9.188Zm-12.432,0v-9.188h9.175v9.188Zm-12.432,0v-9.188h9.174v9.188Zm-49.729,0v-9.188h9.175v9.188Zm-37.3,0v-9.188h9.175v9.188Zm-12.432,0v-9.188H717.8v9.188Zm-12.433,0v-9.188h9.175v9.188Zm-12.432,0v-9.188h9.175v9.188Zm-12.432,0v-9.188h9.175v9.188Zm-12.432,0v-9.188h9.175v9.188Zm-12.433,0v-9.188h9.175v9.188Zm-12.432,0v-9.188h9.175v9.188Zm-285.938,0v-9.188h9.175v9.188Zm-12.432,0v-9.188h9.175v9.188Zm-12.433,0v-9.188h9.175v9.188Zm-12.432,0v-9.188h9.175v9.188Zm-12.433,0v-9.188h9.175v9.188Zm-12.432,0v-9.188h9.175v9.188Zm-12.433,0v-9.188h9.175v9.188Zm-12.431,0v-9.188h9.175v9.188Zm-12.433,0v-9.188h9.175v9.188Zm-12.432,0v-9.188h9.175v9.188Zm-12.433,0v-9.188h9.175v9.188Zm-12.432,0v-9.188h9.175v9.188Zm994.566-12.285v-9.188h9.175v9.188Zm-12.432,0v-9.188h9.176v9.188Zm-12.433,0v-9.188h9.175v9.188Zm-12.432,0v-9.188h9.175v9.188Zm-37.3,0v-9.188h9.175v9.188Zm-12.432,0v-9.188h9.175v9.188Zm-12.433,0v-9.188h9.175v9.188Zm-12.432,0v-9.188h9.175v9.188Zm-12.432,0v-9.188h9.175v9.188Zm-12.433,0v-9.188h9.176v9.188Zm-12.431,0v-9.188h9.175v9.188Zm-12.433,0v-9.188h9.175v9.188Zm-12.432,0v-9.188h9.175v9.188Zm-12.432,0v-9.188h9.175v9.188Zm-12.432,0v-9.188h9.176v9.188Zm-12.432,0v-9.188h9.175v9.188Zm-12.432,0v-9.188h9.175v9.188Zm-12.433,0v-9.188h9.175v9.188Zm-12.432,0v-9.188h9.175v9.188Zm-12.432,0v-9.188h9.175v9.188Zm-12.433,0v-9.188h9.175v9.188Zm-12.432,0v-9.188h9.175v9.188Zm-12.433,0v-9.188h9.175v9.188Zm-12.432,0v-9.188h9.176v9.188Zm-12.432,0v-9.188h9.176v9.188Zm-12.432,0v-9.188h9.175v9.188Zm-12.433,0v-9.188h9.175v9.188Zm-12.432,0v-9.188h9.175v9.188Zm-12.433,0v-9.188h9.175v9.188Zm-12.432,0v-9.188h9.175v9.188Zm-12.432,0v-9.188h9.174v9.188Zm-99.457,0v-9.188H717.8v9.188Zm-12.433,0v-9.188h9.175v9.188Zm-12.432,0v-9.188h9.175v9.188Zm-12.432,0v-9.188h9.175v9.188Zm-12.432,0v-9.188h9.175v9.188Zm-12.433,0v-9.188h9.175v9.188Zm-298.369,0v-9.188h9.175v9.188Zm-12.432,0v-9.188h9.175v9.188Zm-12.433,0v-9.188h9.175v9.188Zm-12.432,0v-9.188h9.175v9.188Zm-12.433,0v-9.188h9.175v9.188Zm-12.432,0v-9.188h9.175v9.188Zm-12.433,0v-9.188h9.175v9.188Zm-12.431,0v-9.188h9.175v9.188Zm-12.433,0v-9.188h9.175v9.188Zm-12.432,0v-9.188h9.175v9.188Zm-12.433,0v-9.188h9.175v9.188Zm-12.432,0v-9.188h9.175v9.188Zm-12.432,0v-9.188h9.175v9.188Zm1019.43-12.285v-9.188h9.175v9.188Zm-12.432,0v-9.188h9.175v9.188Zm-12.432,0v-9.188h9.176v9.188Zm-24.864,0v-9.188h9.175v9.188Zm-24.865,0v-9.188h9.175v9.188Zm-12.432,0v-9.188h9.175v9.188Zm-12.432,0v-9.188h9.175v9.188Zm-12.433,0v-9.188h9.175v9.188Zm-12.432,0v-9.188h9.175v9.188Zm-12.432,0v-9.188h9.175v9.188Zm-12.433,0v-9.188h9.176v9.188Zm-12.431,0v-9.188h9.175v9.188Zm-12.433,0v-9.188h9.175v9.188Zm-12.432,0v-9.188h9.175v9.188Zm-12.432,0v-9.188h9.175v9.188Zm-12.432,0v-9.188h9.176v9.188Zm-12.432,0v-9.188h9.175v9.188Zm-12.432,0v-9.188h9.175v9.188Zm-12.433,0v-9.188h9.175v9.188Zm-12.432,0v-9.188h9.175v9.188Zm-12.432,0v-9.188h9.175v9.188Zm-12.433,0v-9.188h9.175v9.188Zm-12.432,0v-9.188h9.175v9.188Zm-12.433,0v-9.188h9.175v9.188Zm-12.432,0v-9.188h9.176v9.188Zm-12.432,0v-9.188h9.176v9.188Zm-12.432,0v-9.188h9.175v9.188Zm-12.433,0v-9.188h9.175v9.188Zm-12.432,0v-9.188h9.175v9.188Zm-12.433,0v-9.188h9.175v9.188Zm-12.432,0v-9.188h9.175v9.188Zm-12.432,0v-9.188h9.174v9.188Zm-12.432,0v-9.188h9.175v9.188Zm-12.433,0v-9.188H792.4v9.188Zm-24.864,0v-9.188h9.175v9.188Zm-37.3,0v-9.188h9.175v9.188Zm-24.864,0v-9.188h9.175v9.188Zm-12.432,0v-9.188h9.175v9.188Zm-12.432,0v-9.188h9.175v9.188Zm-24.865,0v-9.188h9.175v9.188Zm-285.938,0v-9.188h9.175v9.188Zm-12.432,0v-9.188h9.175v9.188Zm-12.432,0v-9.188h9.175v9.188Zm-12.433,0v-9.188h9.175v9.188Zm-12.432,0v-9.188h9.175v9.188Zm-12.433,0v-9.188h9.175v9.188Zm-12.432,0v-9.188h9.175v9.188Zm-12.433,0v-9.188h9.175v9.188Zm-12.431,0v-9.188h9.175v9.188Zm-12.433,0v-9.188h9.175v9.188Zm-12.432,0v-9.188h9.175v9.188Zm-12.433,0v-9.188h9.175v9.188Zm-12.432,0v-9.188h9.175v9.188Zm-12.432,0v-9.188h9.175v9.188Zm1019.43-12.285v-9.188h9.175v9.188Zm-12.432,0v-9.188h9.175v9.188Zm-37.3,0v-9.188h9.175v9.188Zm-12.432,0v-9.188h9.175v9.188Zm-24.865,0v-9.188h9.175v9.188Zm-12.432,0v-9.188h9.175v9.188Zm-12.433,0v-9.188h9.175v9.188Zm-12.432,0v-9.188h9.175v9.188Zm-12.432,0v-9.188h9.175v9.188Zm-12.433,0v-9.188h9.176v9.188Zm-12.431,0v-9.188h9.175v9.188Zm-12.433,0v-9.188h9.175v9.188Zm-12.432,0v-9.188h9.175v9.188Zm-12.432,0v-9.188h9.175v9.188Zm-12.432,0v-9.188h9.176v9.188Zm-12.432,0v-9.188h9.175v9.188Zm-12.432,0v-9.188h9.175v9.188Zm-12.433,0v-9.188h9.175v9.188Zm-12.432,0v-9.188h9.175v9.188Zm-12.432,0v-9.188h9.175v9.188Zm-12.433,0v-9.188h9.175v9.188Zm-12.432,0v-9.188h9.175v9.188Zm-12.433,0v-9.188h9.175v9.188Zm-12.432,0v-9.188h9.176v9.188Zm-12.432,0v-9.188h9.176v9.188Zm-24.864,0v-9.188h9.175v9.188Zm-12.432,0v-9.188h9.175v9.188Zm-12.433,0v-9.188h9.175v9.188Zm-12.432,0v-9.188h9.175v9.188Zm-12.432,0v-9.188h9.174v9.188Zm-12.432,0v-9.188h9.175v9.188Zm-12.433,0v-9.188H792.4v9.188Zm-24.864,0v-9.188h9.175v9.188Zm-74.592,0v-9.188h9.175v9.188Zm-24.863,0v-9.188h9.175v9.188Zm-12.433,0v-9.188h9.175v9.188Zm-12.432,0v-9.188h9.175v9.188Zm-273.506,0v-9.188h9.175v9.188Zm-12.432,0v-9.188h9.175v9.188Zm-12.432,0v-9.188h9.175v9.188Zm-12.433,0v-9.188h9.175v9.188Zm-12.432,0v-9.188h9.175v9.188Zm-12.433,0v-9.188h9.175v9.188Zm-12.432,0v-9.188h9.175v9.188Zm-12.433,0v-9.188h9.175v9.188Zm-12.431,0v-9.188h9.175v9.188Zm-12.433,0v-9.188h9.175v9.188Zm-12.432,0v-9.188h9.175v9.188Zm-12.433,0v-9.188h9.175v9.188Zm-12.432,0v-9.188h9.175v9.188Zm-12.432,0v-9.188h9.175v9.188Zm-12.433,0v-9.188h9.175v9.188Zm1031.862-12.286v-9.188h9.175v9.188Zm-49.728,0v-9.188h9.175v9.188Zm-12.432,0v-9.188h9.175v9.188Zm-12.433,0v-9.188h9.175v9.188Zm-12.432,0v-9.188h9.175v9.188Zm-12.432,0v-9.188h9.175v9.188Zm-12.433,0v-9.188h9.175v9.188Zm-12.432,0v-9.188h9.175v9.188Zm-12.432,0v-9.188h9.175v9.188Zm-12.433,0v-9.188h9.176v9.188Zm-12.431,0v-9.188h9.175v9.188Zm-12.433,0v-9.188h9.175v9.188Zm-12.432,0v-9.188h9.175v9.188Zm-12.432,0v-9.188h9.175v9.188Zm-12.432,0v-9.188h9.176v9.188Zm-12.432,0v-9.188h9.175v9.188Zm-12.432,0v-9.188h9.175v9.188Zm-12.433,0v-9.188h9.175v9.188Zm-12.432,0v-9.188h9.175v9.188Zm-12.432,0v-9.188h9.175v9.188Zm-12.433,0v-9.188h9.175v9.188Zm-12.432,0v-9.188h9.175v9.188Zm-12.433,0v-9.188h9.175v9.188Zm-12.432,0v-9.188h9.176v9.188Zm-37.3,0v-9.188h9.175v9.188Zm-12.432,0v-9.188h9.175v9.188Zm-12.433,0v-9.188h9.175v9.188Zm-12.432,0v-9.188h9.175v9.188Zm-12.432,0v-9.188h9.174v9.188Zm-12.432,0v-9.188h9.175v9.188Zm-24.864,0v-9.188h9.175v9.188Zm-12.433,0v-9.188h9.175v9.188Zm-12.432,0v-9.188H755.1v9.188Zm-24.865,0v-9.188h9.175v9.188Zm-12.432,0v-9.188H717.8v9.188Zm-37.3,0v-9.188h9.175v9.188Zm-12.432,0v-9.188h9.175v9.188Zm-12.433,0v-9.188h9.175v9.188Zm-12.432,0v-9.188h9.175v9.188Zm-248.641,0v-9.188h9.175v9.188Zm-12.433,0v-9.188h9.175v9.188Zm-12.432,0v-9.188h9.175v9.188Zm-12.432,0v-9.188h9.175v9.188Zm-12.432,0v-9.188h9.175v9.188Zm-12.433,0v-9.188h9.175v9.188Zm-12.432,0v-9.188h9.175v9.188Zm-12.433,0v-9.188h9.175v9.188Zm-12.432,0v-9.188h9.175v9.188Zm-12.433,0v-9.188h9.175v9.188Zm-12.431,0v-9.188h9.175v9.188Zm-12.433,0v-9.188h9.175v9.188Zm-12.432,0v-9.188h9.175v9.188Zm-12.433,0v-9.188h9.175v9.188Zm-12.432,0v-9.188h9.175v9.188Zm-12.432,0v-9.188h9.175v9.188Zm-12.433,0v-9.188h9.175v9.188Zm1056.727-12.285v-9.188h9.176v9.188Zm-12.432,0v-9.188h9.175v9.188Zm-12.432,0v-9.188h9.175v9.188Zm-24.864,0v-9.188h9.176v9.188Zm-12.433,0v-9.188h9.175v9.188Zm-12.432,0v-9.188h9.175v9.188Zm-12.432,0v-9.188h9.175v9.188Zm-12.433,0v-9.188h9.175v9.188Zm-12.432,0v-9.188h9.175v9.188Zm-12.432,0v-9.188h9.175v9.188Zm-12.433,0v-9.188h9.175v9.188Zm-12.432,0v-9.188h9.175v9.188Zm-12.432,0v-9.188h9.175v9.188Zm-12.433,0v-9.188h9.176v9.188Zm-12.431,0v-9.188h9.175v9.188Zm-12.433,0v-9.188h9.175v9.188Zm-12.432,0v-9.188h9.175v9.188Zm-12.432,0v-9.188h9.175v9.188Zm-12.432,0v-9.188h9.176v9.188Zm-12.432,0v-9.188h9.175v9.188Zm-12.432,0v-9.188h9.175v9.188Zm-12.433,0v-9.188h9.175v9.188Zm-12.432,0v-9.188h9.175v9.188Zm-12.432,0v-9.188h9.175v9.188Zm-12.433,0v-9.188h9.175v9.188Zm-12.432,0v-9.188h9.175v9.188Zm-24.864,0v-9.188h9.176v9.188Zm-12.432,0v-9.188h9.176v9.188Zm-12.432,0v-9.188h9.175v9.188Zm-24.865,0v-9.188h9.175v9.188Zm-12.433,0v-9.188h9.175v9.188Zm-62.16,0v-9.188h9.175v9.188Zm-12.433,0v-9.188h9.175v9.188Zm-12.432,0v-9.188H755.1v9.188Zm-12.432,0v-9.188h9.175v9.188Zm-24.864,0v-9.188H717.8v9.188Zm-12.433,0v-9.188h9.175v9.188Zm-12.432,0v-9.188h9.175v9.188Zm-12.432,0v-9.188h9.175v9.188Zm-12.432,0v-9.188h9.175v9.188Zm-12.433,0v-9.188h9.175v9.188Zm-12.432,0v-9.188h9.175v9.188Zm-248.641,0v-9.188h9.175v9.188Zm-12.433,0v-9.188h9.175v9.188Zm-12.432,0v-9.188h9.175v9.188Zm-12.432,0v-9.188h9.175v9.188Zm-12.432,0v-9.188h9.175v9.188Zm-24.865,0v-9.188h9.175v9.188Zm-12.433,0v-9.188h9.175v9.188Zm-12.432,0v-9.188h9.175v9.188Zm-12.433,0v-9.188h9.175v9.188Zm-12.431,0v-9.188h9.175v9.188Zm-12.433,0v-9.188h9.175v9.188Zm-12.432,0v-9.188h9.175v9.188Zm-12.433,0v-9.188h9.175v9.188Zm-12.432,0v-9.188h9.175v9.188Zm-12.432,0v-9.188h9.175v9.188Zm-12.433,0v-9.188h9.175v9.188Zm1069.158-12.285v-9.188h9.176v9.188Zm-24.863,0v-9.188h9.175v9.188Zm-24.864,0v-9.188h9.175v9.188Zm-12.432,0v-9.188h9.176v9.188Zm-12.433,0v-9.188h9.175v9.188Zm-12.432,0v-9.188h9.175v9.188Zm-12.432,0v-9.188h9.175v9.188Zm-12.433,0v-9.188h9.175v9.188Zm-12.432,0v-9.188h9.175v9.188Zm-12.432,0v-9.188h9.175v9.188Zm-12.433,0v-9.188h9.175v9.188Zm-12.432,0v-9.188h9.175v9.188Zm-12.432,0v-9.188h9.175v9.188Zm-12.433,0v-9.188h9.176v9.188Zm-12.431,0v-9.188h9.175v9.188Zm-12.433,0v-9.188h9.175v9.188Zm-12.432,0v-9.188h9.175v9.188Zm-12.432,0v-9.188h9.175v9.188Zm-12.432,0v-9.188h9.176v9.188Zm-12.432,0v-9.188h9.175v9.188Zm-12.432,0v-9.188h9.175v9.188Zm-12.433,0v-9.188h9.175v9.188Zm-12.432,0v-9.188h9.175v9.188Zm-12.432,0v-9.188h9.175v9.188Zm-12.433,0v-9.188h9.175v9.188Zm-12.432,0v-9.188h9.175v9.188Zm-12.433,0v-9.188h9.175v9.188Zm-12.432,0v-9.188h9.176v9.188Zm-12.432,0v-9.188h9.176v9.188Zm-37.3,0v-9.188h9.175v9.188Zm-12.433,0v-9.188h9.175v9.188Zm-12.432,0v-9.188h9.175v9.188Zm-12.432,0v-9.188h9.174v9.188Zm-24.865,0v-9.188H792.4v9.188Zm-12.432,0v-9.188h9.175v9.188Zm-12.433,0v-9.188h9.175v9.188Zm-12.432,0v-9.188H755.1v9.188Zm-12.432,0v-9.188h9.175v9.188Zm-12.433,0v-9.188h9.175v9.188Zm-12.432,0v-9.188H717.8v9.188Zm-12.433,0v-9.188h9.175v9.188Zm-12.432,0v-9.188h9.175v9.188Zm-12.432,0v-9.188h9.175v9.188Zm-236.21,0v-9.188H444.3v9.188Zm-12.432,0v-9.188h9.175v9.188Zm-12.433,0v-9.188h9.175v9.188Zm-12.432,0v-9.188H407v9.188Zm-12.432,0v-9.188h9.175v9.188Zm-12.433,0v-9.188h9.175v9.188Zm-12.432,0v-9.188h9.175v9.188Zm-12.432,0v-9.188h9.175v9.188Zm-24.864,0v-9.188h9.175v9.188Zm-12.432,0v-9.188h9.175v9.188Zm-12.433,0v-9.188h9.175v9.188Zm-12.432,0v-9.188h9.175v9.188Zm-12.433,0v-9.188h9.175v9.188Zm-12.431,0v-9.188h9.175v9.188Zm-12.433,0v-9.188h9.175v9.188Zm-12.432,0v-9.188h9.175v9.188Zm-12.433,0v-9.188h9.175v9.188Zm-12.432,0v-9.188h9.175v9.188Zm-12.432,0v-9.188h9.175v9.188Zm-12.433,0v-9.188h9.175v9.188Zm1081.591-12.285v-9.188h9.175v9.188Zm-37.3,0v-9.188h9.175v9.188Zm-24.864,0v-9.188h9.175v9.188Zm-12.432,0v-9.188h9.176v9.188Zm-12.433,0v-9.188h9.175v9.188Zm-12.432,0v-9.188h9.175v9.188Zm-12.432,0v-9.188h9.175v9.188Zm-12.433,0v-9.188h9.175v9.188Zm-12.432,0v-9.188h9.175v9.188Zm-12.432,0v-9.188h9.175v9.188Zm-12.433,0v-9.188h9.175v9.188Zm-12.432,0v-9.188h9.175v9.188Zm-12.432,0v-9.188h9.175v9.188Zm-12.433,0v-9.188h9.176v9.188Zm-12.431,0v-9.188h9.175v9.188Zm-12.433,0v-9.188h9.175v9.188Zm-12.432,0v-9.188h9.175v9.188Zm-12.432,0v-9.188h9.175v9.188Zm-12.432,0v-9.188h9.176v9.188Zm-12.432,0v-9.188h9.175v9.188Zm-12.432,0v-9.188h9.175v9.188Zm-12.433,0v-9.188h9.175v9.188Zm-12.432,0v-9.188h9.175v9.188Zm-12.432,0v-9.188h9.175v9.188Zm-12.433,0v-9.188h9.175v9.188Zm-12.432,0v-9.188h9.175v9.188Zm-12.433,0v-9.188h9.175v9.188Zm-12.432,0v-9.188h9.176v9.188Zm-12.432,0v-9.188h9.176v9.188Zm-12.432,0v-9.188h9.175v9.188Zm-12.433,0v-9.188h9.175v9.188Zm-12.432,0v-9.188h9.175v9.188Zm-12.433,0v-9.188h9.175v9.188Zm-12.432,0v-9.188h9.175v9.188Zm-12.432,0v-9.188h9.174v9.188Zm-12.432,0v-9.188h9.175v9.188Zm-12.433,0v-9.188H792.4v9.188Zm-12.432,0v-9.188h9.175v9.188Zm-12.433,0v-9.188h9.175v9.188Zm-12.432,0v-9.188H755.1v9.188Zm-12.432,0v-9.188h9.175v9.188Zm-12.433,0v-9.188h9.175v9.188Zm-12.432,0v-9.188H717.8v9.188Zm-12.433,0v-9.188h9.175v9.188Zm-12.432,0v-9.188h9.175v9.188Zm-12.432,0v-9.188h9.175v9.188Zm-12.432,0v-9.188h9.175v9.188Zm-198.914,0v-9.188h9.175v9.188Zm-12.432,0v-9.188h9.175v9.188Zm-12.433,0v-9.188H444.3v9.188Zm-12.432,0v-9.188h9.175v9.188Zm-12.433,0v-9.188h9.175v9.188Zm-12.432,0v-9.188H407v9.188Zm-12.432,0v-9.188h9.175v9.188Zm-12.433,0v-9.188h9.175v9.188Zm-12.432,0v-9.188h9.175v9.188Zm-12.432,0v-9.188h9.175v9.188Zm-12.432,0v-9.188h9.175v9.188Zm-24.865,0v-9.188h9.175v9.188Zm-12.433,0v-9.188h9.175v9.188Zm-12.432,0v-9.188h9.175v9.188Zm-12.433,0v-9.188h9.175v9.188Zm-12.431,0v-9.188h9.175v9.188Zm-12.433,0v-9.188h9.175v9.188Zm-12.432,0v-9.188h9.175v9.188Zm-12.433,0v-9.188h9.175v9.188Zm-12.432,0v-9.188h9.175v9.188Zm-12.432,0v-9.188h9.175v9.188ZM1280.5,230.323v-9.188h9.175v9.188Zm-49.728,0v-9.188h9.175v9.188Zm-12.432,0v-9.188h9.175v9.188Zm-12.432,0v-9.188h9.175v9.188Zm-12.432,0v-9.188h9.176v9.188Zm-12.433,0v-9.188h9.175v9.188Zm-12.432,0v-9.188h9.175v9.188Zm-12.432,0v-9.188h9.175v9.188Zm-12.433,0v-9.188h9.175v9.188Zm-12.432,0v-9.188h9.175v9.188Zm-12.432,0v-9.188h9.175v9.188Zm-12.433,0v-9.188h9.175v9.188Zm-12.432,0v-9.188h9.175v9.188Zm-12.432,0v-9.188h9.175v9.188Zm-12.433,0v-9.188h9.176v9.188Zm-12.431,0v-9.188h9.175v9.188Zm-12.433,0v-9.188h9.175v9.188Zm-12.432,0v-9.188h9.175v9.188Zm-12.432,0v-9.188h9.175v9.188Zm-12.432,0v-9.188h9.176v9.188Zm-12.432,0v-9.188h9.175v9.188Zm-12.432,0v-9.188h9.175v9.188Zm-12.433,0v-9.188h9.175v9.188Zm-12.432,0v-9.188h9.175v9.188Zm-12.432,0v-9.188h9.175v9.188Zm-12.433,0v-9.188h9.175v9.188Zm-12.432,0v-9.188h9.175v9.188Zm-12.433,0v-9.188h9.175v9.188Zm-12.432,0v-9.188h9.176v9.188Zm-12.432,0v-9.188h9.176v9.188Zm-12.432,0v-9.188h9.175v9.188Zm-12.433,0v-9.188h9.175v9.188Zm-12.432,0v-9.188h9.175v9.188Zm-12.433,0v-9.188h9.175v9.188Zm-12.432,0v-9.188h9.175v9.188Zm-12.432,0v-9.188h9.174v9.188Zm-12.432,0v-9.188h9.175v9.188Zm-12.433,0v-9.188H792.4v9.188Zm-12.432,0v-9.188h9.175v9.188Zm-12.433,0v-9.188h9.175v9.188Zm-12.432,0v-9.188H755.1v9.188Zm-12.432,0v-9.188h9.175v9.188Zm-12.433,0v-9.188h9.175v9.188Zm-12.432,0v-9.188H717.8v9.188Zm-12.433,0v-9.188h9.175v9.188Zm-12.432,0v-9.188h9.175v9.188Zm-12.432,0v-9.188h9.175v9.188Zm-12.432,0v-9.188h9.175v9.188Zm-223.778,0v-9.188H444.3v9.188Zm-12.432,0v-9.188h9.175v9.188Zm-12.433,0v-9.188h9.175v9.188Zm-12.432,0v-9.188H407v9.188Zm-12.432,0v-9.188h9.175v9.188Zm-12.433,0v-9.188h9.175v9.188Zm-12.432,0v-9.188h9.175v9.188Zm-12.432,0v-9.188h9.175v9.188Zm-12.432,0v-9.188h9.175v9.188Zm-12.433,0v-9.188h9.175v9.188Zm-12.432,0v-9.188h9.175v9.188Zm-12.433,0v-9.188h9.175v9.188Zm-12.432,0v-9.188h9.175v9.188Zm-12.433,0v-9.188h9.175v9.188Zm-12.431,0v-9.188h9.175v9.188Zm-12.433,0v-9.188h9.175v9.188Zm-12.432,0v-9.188h9.175v9.188Zm-12.433,0v-9.188h9.175v9.188Zm-12.432,0v-9.188h9.175v9.188Zm-12.432,0v-9.188h9.175v9.188Zm-12.433,0v-9.188h9.175v9.188Zm-12.432,0v-9.188h9.175v9.188ZM1280.5,218.038V208.85h9.175v9.188Zm-49.728,0V208.85h9.175v9.188Zm-12.432,0V208.85h9.175v9.188Zm-12.432,0V208.85h9.175v9.188Zm-12.432,0V208.85h9.176v9.188Zm-12.433,0V208.85h9.175v9.188Zm-12.432,0V208.85h9.175v9.188Zm-12.432,0V208.85h9.175v9.188Zm-12.433,0V208.85h9.175v9.188Zm-12.432,0V208.85h9.175v9.188Zm-12.432,0V208.85h9.175v9.188Zm-12.433,0V208.85h9.175v9.188Zm-12.432,0V208.85h9.175v9.188Zm-12.432,0V208.85h9.175v9.188Zm-12.433,0V208.85h9.176v9.188Zm-12.431,0V208.85h9.175v9.188Zm-12.433,0V208.85h9.175v9.188Zm-12.432,0V208.85h9.175v9.188Zm-12.432,0V208.85h9.175v9.188Zm-12.432,0V208.85h9.176v9.188Zm-12.432,0V208.85h9.175v9.188Zm-12.432,0V208.85h9.175v9.188Zm-12.433,0V208.85h9.175v9.188Zm-12.432,0V208.85h9.175v9.188Zm-12.432,0V208.85h9.175v9.188Zm-12.433,0V208.85h9.175v9.188Zm-12.432,0V208.85h9.175v9.188Zm-12.433,0V208.85h9.175v9.188Zm-12.432,0V208.85h9.176v9.188Zm-12.432,0V208.85h9.176v9.188Zm-12.432,0V208.85h9.175v9.188Zm-12.433,0V208.85h9.175v9.188Zm-12.432,0V208.85h9.175v9.188Zm-12.433,0V208.85h9.175v9.188Zm-12.432,0V208.85h9.175v9.188Zm-12.432,0V208.85h9.174v9.188Zm-12.432,0V208.85h9.175v9.188Zm-12.433,0V208.85H792.4v9.188Zm-12.432,0V208.85h9.175v9.188Zm-12.433,0V208.85h9.175v9.188Zm-12.432,0V208.85H755.1v9.188Zm-12.432,0V208.85h9.175v9.188Zm-12.433,0V208.85h9.175v9.188Zm-12.432,0V208.85H717.8v9.188Zm-12.433,0V208.85h9.175v9.188Zm-37.3,0V208.85h9.175v9.188Zm-12.433,0V208.85h9.175v9.188Zm-12.432,0V208.85h9.175v9.188Zm-186.481,0V208.85h9.175v9.188Zm-12.433,0V208.85H444.3v9.188Zm-12.432,0V208.85h9.175v9.188Zm-12.433,0V208.85h9.175v9.188Zm-12.432,0V208.85H407v9.188Zm-12.432,0V208.85h9.175v9.188Zm-12.433,0V208.85h9.175v9.188Zm-12.432,0V208.85h9.175v9.188Zm-24.863,0V208.85h9.175v9.188Zm-12.433,0V208.85h9.175v9.188Zm-12.432,0V208.85h9.175v9.188Zm-12.433,0V208.85h9.175v9.188Zm-12.432,0V208.85h9.175v9.188Zm-12.433,0V208.85h9.175v9.188Zm-12.431,0V208.85h9.175v9.188Zm-12.433,0V208.85h9.175v9.188Zm-12.432,0V208.85h9.175v9.188Zm-12.433,0V208.85h9.175v9.188Zm-12.432,0V208.85h9.175v9.188Zm-12.432,0V208.85h9.175v9.188Zm-12.433,0V208.85h9.175v9.188Zm-12.432,0V208.85h9.175v9.188Zm-24.864,0V208.85h9.175v9.188Zm-136.753,0V208.85h9.175v9.188Zm1317.8-12.285v-9.188h9.175v9.188Zm-12.432,0v-9.188h9.175v9.188Zm-24.864,0v-9.188h9.175v9.188Zm-12.433,0v-9.188h9.175v9.188Zm-87.024,0v-9.188h9.176v9.188Zm-12.433,0v-9.188h9.175v9.188Zm-12.432,0v-9.188h9.175v9.188Zm-12.432,0v-9.188h9.175v9.188Zm-12.433,0v-9.188h9.175v9.188Zm-12.432,0v-9.188h9.175v9.188Zm-12.432,0v-9.188h9.175v9.188Zm-12.433,0v-9.188h9.175v9.188Zm-12.432,0v-9.188h9.175v9.188Zm-12.432,0v-9.188h9.175v9.188Zm-12.433,0v-9.188h9.176v9.188Zm-12.431,0v-9.188h9.175v9.188Zm-12.433,0v-9.188h9.175v9.188Zm-12.432,0v-9.188h9.175v9.188Zm-12.432,0v-9.188h9.175v9.188Zm-12.432,0v-9.188h9.176v9.188Zm-12.432,0v-9.188h9.175v9.188Zm-12.432,0v-9.188h9.175v9.188Zm-12.433,0v-9.188h9.175v9.188Zm-12.432,0v-9.188h9.175v9.188Zm-12.432,0v-9.188h9.175v9.188Zm-12.433,0v-9.188h9.175v9.188Zm-12.432,0v-9.188h9.175v9.188Zm-12.433,0v-9.188h9.175v9.188Zm-12.432,0v-9.188h9.176v9.188Zm-12.432,0v-9.188h9.176v9.188Zm-12.432,0v-9.188h9.175v9.188Zm-12.433,0v-9.188h9.175v9.188Zm-12.432,0v-9.188h9.175v9.188Zm-12.433,0v-9.188h9.175v9.188Zm-12.432,0v-9.188h9.175v9.188Zm-12.432,0v-9.188h9.174v9.188Zm-12.432,0v-9.188h9.175v9.188Zm-12.433,0v-9.188H792.4v9.188Zm-12.432,0v-9.188h9.175v9.188Zm-12.433,0v-9.188h9.175v9.188Zm-12.432,0v-9.188H755.1v9.188Zm-87.024,0v-9.188h9.175v9.188Zm-12.433,0v-9.188h9.175v9.188Zm-12.432,0v-9.188h9.175v9.188Zm-211.345,0v-9.188h9.175v9.188Zm-12.433,0v-9.188h9.175v9.188Zm-12.432,0v-9.188H407v9.188Zm-12.432,0v-9.188h9.175v9.188Zm-12.433,0v-9.188h9.175v9.188Zm-12.432,0v-9.188h9.175v9.188Zm-37.3,0v-9.188h9.175v9.188Zm-12.432,0v-9.188h9.175v9.188Zm-12.433,0v-9.188h9.175v9.188Zm-12.432,0v-9.188h9.175v9.188Zm-12.433,0v-9.188h9.175v9.188Zm-12.431,0v-9.188h9.175v9.188Zm-12.433,0v-9.188h9.175v9.188Zm-12.432,0v-9.188h9.175v9.188Zm-12.433,0v-9.188h9.175v9.188Zm-12.432,0v-9.188h9.175v9.188Zm-12.432,0v-9.188h9.175v9.188Zm-12.433,0v-9.188h9.175v9.188Zm-12.432,0v-9.188h9.175v9.188Zm-12.432,0v-9.188h9.175v9.188Zm-12.433,0v-9.188h9.175v9.188Zm-111.889,0v-9.188h9.175v9.188Zm1255.64-12.286v-9.188h9.175v9.188Zm-12.433,0v-9.188h9.175v9.188Zm-74.592,0v-9.188h9.175v9.188Zm-12.432,0v-9.188h9.176v9.188Zm-12.433,0v-9.188h9.175v9.188Zm-12.432,0v-9.188h9.175v9.188Zm-12.432,0v-9.188h9.175v9.188Zm-12.433,0v-9.188h9.175v9.188Zm-12.432,0v-9.188h9.175v9.188Zm-12.432,0v-9.188h9.175v9.188Zm-12.433,0v-9.188h9.175v9.188Zm-12.432,0v-9.188h9.175v9.188Zm-12.432,0v-9.188h9.175v9.188Zm-12.433,0v-9.188h9.176v9.188Zm-12.431,0v-9.188h9.175v9.188Zm-12.433,0v-9.188h9.175v9.188Zm-12.432,0v-9.188h9.175v9.188Zm-12.432,0v-9.188h9.175v9.188Zm-12.432,0v-9.188h9.176v9.188Zm-12.432,0v-9.188h9.175v9.188Zm-12.432,0v-9.188h9.175v9.188Zm-12.433,0v-9.188h9.175v9.188Zm-12.432,0v-9.188h9.175v9.188Zm-12.432,0v-9.188h9.175v9.188Zm-12.433,0v-9.188h9.175v9.188Zm-12.432,0v-9.188h9.175v9.188Zm-12.433,0v-9.188h9.175v9.188Zm-12.432,0v-9.188h9.176v9.188Zm-12.432,0v-9.188h9.176v9.188Zm-12.432,0v-9.188h9.175v9.188Zm-12.433,0v-9.188h9.175v9.188Zm-12.432,0v-9.188h9.175v9.188Zm-12.433,0v-9.188h9.175v9.188Zm-12.432,0v-9.188h9.175v9.188Zm-12.432,0v-9.188h9.174v9.188Zm-12.432,0v-9.188h9.175v9.188Zm-12.433,0v-9.188H792.4v9.188Zm-12.432,0v-9.188h9.175v9.188Zm-12.433,0v-9.188h9.175v9.188Zm-12.432,0v-9.188H755.1v9.188Zm-12.432,0v-9.188h9.175v9.188Zm-12.433,0v-9.188h9.175v9.188Zm-62.16,0v-9.188h9.175v9.188Zm-236.21,0v-9.188h9.175v9.188Zm-12.433,0v-9.188h9.175v9.188Zm-12.432,0v-9.188H407v9.188Zm-12.432,0v-9.188h9.175v9.188Zm-12.433,0v-9.188h9.175v9.188Zm-62.16,0v-9.188h9.175v9.188Zm-12.433,0v-9.188h9.175v9.188Zm-12.432,0v-9.188h9.175v9.188Zm-12.433,0v-9.188h9.175v9.188Zm-12.431,0v-9.188h9.175v9.188Zm-12.433,0v-9.188h9.175v9.188Zm-12.432,0v-9.188h9.175v9.188Zm-12.433,0v-9.188h9.175v9.188Zm-12.432,0v-9.188h9.175v9.188Zm-12.432,0v-9.188h9.175v9.188Zm-12.433,0v-9.188h9.175v9.188Zm-12.432,0v-9.188h9.175v9.188Zm-12.432,0v-9.188h9.175v9.188Zm-12.433,0v-9.188h9.175v9.188Zm-87.024,0v-9.188h9.175v9.188Zm-12.432,0v-9.188H58.9v9.188Zm1255.638-12.285v-9.188h9.175v9.188Zm-12.431,0v-9.188h9.175v9.188Zm-74.593,0v-9.188h9.175v9.188Zm-12.432,0v-9.188h9.175v9.188Zm-12.432,0v-9.188h9.176v9.188Zm-12.433,0v-9.188h9.175v9.188Zm-12.432,0v-9.188h9.175v9.188Zm-12.432,0v-9.188h9.175v9.188Zm-12.433,0v-9.188h9.175v9.188Zm-12.432,0v-9.188h9.175v9.188Zm-12.432,0v-9.188h9.175v9.188Zm-12.433,0v-9.188h9.175v9.188Zm-12.432,0v-9.188h9.175v9.188Zm-12.432,0v-9.188h9.175v9.188Zm-12.433,0v-9.188h9.176v9.188Zm-12.431,0v-9.188h9.175v9.188Zm-12.433,0v-9.188h9.175v9.188Zm-12.432,0v-9.188h9.175v9.188Zm-12.432,0v-9.188h9.175v9.188Zm-12.432,0v-9.188h9.176v9.188Zm-12.432,0v-9.188h9.175v9.188Zm-12.432,0v-9.188h9.175v9.188Zm-12.433,0v-9.188h9.175v9.188Zm-12.432,0v-9.188h9.175v9.188Zm-12.432,0v-9.188h9.175v9.188Zm-12.433,0v-9.188h9.175v9.188Zm-12.432,0v-9.188h9.175v9.188Zm-12.433,0v-9.188h9.175v9.188Zm-12.432,0v-9.188h9.176v9.188Zm-12.432,0v-9.188h9.176v9.188Zm-12.432,0v-9.188h9.175v9.188Zm-12.433,0v-9.188h9.175v9.188Zm-12.432,0v-9.188h9.175v9.188Zm-12.433,0v-9.188h9.175v9.188Zm-12.432,0v-9.188h9.175v9.188Zm-12.432,0v-9.188h9.174v9.188Zm-12.432,0v-9.188h9.175v9.188Zm-12.433,0v-9.188H792.4v9.188Zm-12.432,0v-9.188h9.175v9.188Zm-37.3,0v-9.188h9.175v9.188Zm-12.433,0v-9.188h9.175v9.188Zm-12.432,0v-9.188H717.8v9.188Zm-49.728,0v-9.188h9.175v9.188Zm-12.433,0v-9.188h9.175v9.188Zm-236.21,0v-9.188h9.175v9.188Zm-12.432,0v-9.188H407v9.188Zm-12.432,0v-9.188h9.175v9.188Zm-12.433,0v-9.188h9.175v9.188Zm-12.432,0v-9.188h9.175v9.188Zm-74.592,0v-9.188h9.175v9.188Zm-12.433,0v-9.188h9.175v9.188Zm-12.431,0v-9.188h9.175v9.188Zm-12.433,0v-9.188h9.175v9.188Zm-12.432,0v-9.188h9.175v9.188Zm-12.433,0v-9.188h9.175v9.188Zm-12.432,0v-9.188h9.175v9.188Zm-12.432,0v-9.188h9.175v9.188Zm-12.433,0v-9.188h9.175v9.188Zm-12.432,0v-9.188h9.175v9.188Zm-12.432,0v-9.188h9.175v9.188Zm-12.433,0v-9.188h9.175v9.188Zm-12.432,0v-9.188h9.175v9.188Zm-62.161,0v-9.188h9.175v9.188Zm-12.432,0v-9.188h9.175v9.188Zm-12.432,0v-9.188H58.9v9.188Zm-12.433,0v-9.188h9.175v9.188ZM1317.8,168.9v-9.188h9.175V168.9Zm-12.433,0v-9.188h9.175V168.9Zm-12.431,0v-9.188h9.175V168.9Zm-24.864,0v-9.188h9.175V168.9Zm-12.433,0v-9.188h9.176V168.9Zm-12.432,0v-9.188h9.176V168.9Zm-12.432,0v-9.188h9.175V168.9Zm-12.432,0v-9.188h9.175V168.9Zm-12.432,0v-9.188h9.175V168.9Zm-12.432,0v-9.188h9.176V168.9Zm-12.433,0v-9.188h9.175V168.9Zm-12.432,0v-9.188h9.175V168.9Zm-12.432,0v-9.188h9.175V168.9Zm-12.433,0v-9.188h9.175V168.9Zm-12.432,0v-9.188h9.175V168.9Zm-12.432,0v-9.188h9.175V168.9Zm-12.433,0v-9.188h9.175V168.9Zm-12.432,0v-9.188h9.175V168.9Zm-12.432,0v-9.188h9.175V168.9Zm-12.433,0v-9.188h9.176V168.9Zm-12.431,0v-9.188h9.175V168.9Zm-12.433,0v-9.188h9.175V168.9Zm-12.432,0v-9.188h9.175V168.9Zm-12.432,0v-9.188h9.175V168.9Zm-12.432,0v-9.188h9.176V168.9Zm-12.432,0v-9.188h9.175V168.9Zm-12.432,0v-9.188h9.175V168.9Zm-12.433,0v-9.188h9.175V168.9Zm-12.432,0v-9.188h9.175V168.9Zm-12.432,0v-9.188h9.175V168.9Zm-12.433,0v-9.188h9.175V168.9Zm-12.432,0v-9.188h9.175V168.9Zm-12.433,0v-9.188h9.175V168.9Zm-12.432,0v-9.188h9.176V168.9Zm-12.432,0v-9.188h9.176V168.9Zm-12.432,0v-9.188h9.175V168.9Zm-12.433,0v-9.188h9.175V168.9Zm-12.432,0v-9.188h9.175V168.9Zm-12.433,0v-9.188h9.175V168.9Zm-12.432,0v-9.188h9.175V168.9Zm-12.432,0v-9.188h9.174V168.9Zm-12.432,0v-9.188h9.175V168.9Zm-12.433,0v-9.188H792.4V168.9Zm-12.432,0v-9.188h9.175V168.9Zm-12.433,0v-9.188h9.175V168.9Zm-24.864,0v-9.188h9.175V168.9Zm-12.433,0v-9.188h9.175V168.9Zm-12.432,0v-9.188H717.8V168.9Zm-12.433,0v-9.188h9.175V168.9Zm-37.3,0v-9.188h9.175V168.9Zm-161.617,0v-9.188h9.175V168.9Zm-12.433,0v-9.188h9.175V168.9Zm-99.456,0v-9.188h9.175V168.9Zm-12.433,0v-9.188h9.175V168.9Zm-12.432,0v-9.188h9.175V168.9Zm-74.592,0v-9.188h9.175V168.9Zm-12.433,0v-9.188h9.175V168.9Zm-12.431,0v-9.188h9.175V168.9Zm-12.433,0v-9.188h9.175V168.9Zm-12.432,0v-9.188h9.175V168.9Zm-12.433,0v-9.188h9.175V168.9Zm-12.432,0v-9.188h9.175V168.9Zm-12.432,0v-9.188h9.175V168.9Zm-12.433,0v-9.188h9.175V168.9Zm-12.432,0v-9.188h9.175V168.9Zm-12.432,0v-9.188h9.175V168.9Zm-12.433,0v-9.188h9.175V168.9Zm-12.432,0v-9.188h9.175V168.9Zm-12.432,0v-9.188H133.5V168.9Zm-12.433,0v-9.188h9.175V168.9Zm-12.432,0v-9.188h9.175V168.9Zm-24.864,0v-9.188h9.175V168.9Zm-12.432,0v-9.188h9.175V168.9Zm-12.432,0v-9.188H58.9V168.9Zm-12.433,0v-9.188h9.175V168.9Zm-12.432,0v-9.188H34.04V168.9Zm-12.433,0v-9.188h9.175V168.9Zm1355.1-12.286v-9.188h9.175v9.188Zm-12.432,0v-9.188h9.175v9.188Zm-12.432,0v-9.188h9.175v9.188Zm-12.433,0v-9.188h9.175v9.188Zm-12.432,0v-9.188h9.175v9.188Zm-12.433,0v-9.188h9.175v9.188Zm-12.431,0v-9.188h9.175v9.188Zm-12.433,0v-9.188h9.175v9.188Zm-12.432,0v-9.188h9.175v9.188Zm-12.433,0v-9.188h9.176v9.188Zm-12.432,0v-9.188h9.176v9.188Zm-12.432,0v-9.188h9.175v9.188Zm-12.432,0v-9.188h9.175v9.188Zm-12.432,0v-9.188h9.175v9.188Zm-12.432,0v-9.188h9.176v9.188Zm-12.433,0v-9.188h9.175v9.188Zm-12.432,0v-9.188h9.175v9.188Zm-12.432,0v-9.188h9.175v9.188Zm-12.433,0v-9.188h9.175v9.188Zm-12.432,0v-9.188h9.175v9.188Zm-12.432,0v-9.188h9.175v9.188Zm-12.433,0v-9.188h9.175v9.188Zm-12.432,0v-9.188h9.175v9.188Zm-12.432,0v-9.188h9.175v9.188Zm-12.433,0v-9.188h9.176v9.188Zm-12.431,0v-9.188h9.175v9.188Zm-12.433,0v-9.188h9.175v9.188Zm-12.432,0v-9.188h9.175v9.188Zm-12.432,0v-9.188h9.175v9.188Zm-12.432,0v-9.188h9.176v9.188Zm-12.432,0v-9.188h9.175v9.188Zm-12.432,0v-9.188h9.175v9.188Zm-12.433,0v-9.188h9.175v9.188Zm-12.432,0v-9.188h9.175v9.188Zm-12.432,0v-9.188h9.175v9.188Zm-12.433,0v-9.188h9.175v9.188Zm-12.432,0v-9.188h9.175v9.188Zm-12.433,0v-9.188h9.175v9.188Zm-12.432,0v-9.188h9.176v9.188Zm-12.432,0v-9.188h9.176v9.188Zm-12.432,0v-9.188h9.175v9.188Zm-12.433,0v-9.188h9.175v9.188Zm-12.432,0v-9.188h9.175v9.188Zm-12.433,0v-9.188h9.175v9.188Zm-12.432,0v-9.188h9.175v9.188Zm-12.432,0v-9.188h9.174v9.188Zm-12.432,0v-9.188h9.175v9.188Zm-12.433,0v-9.188H792.4v9.188Zm-12.432,0v-9.188h9.175v9.188Zm-12.433,0v-9.188h9.175v9.188Zm-24.864,0v-9.188h9.175v9.188Zm-12.433,0v-9.188h9.175v9.188Zm-12.432,0v-9.188H717.8v9.188Zm-74.592,0v-9.188h9.175v9.188Zm-136.753,0v-9.188h9.175v9.188Zm-12.433,0v-9.188h9.175v9.188Zm-12.431,0v-9.188h9.175v9.188Zm-62.162,0v-9.188h9.175v9.188Zm-12.432,0v-9.188H407v9.188Zm-49.728,0v-9.188h9.175v9.188Zm-12.432,0v-9.188h9.175v9.188Zm-37.3,0v-9.188h9.175v9.188Zm-12.432,0v-9.188h9.175v9.188Zm-12.433,0v-9.188h9.175v9.188Zm-12.431,0v-9.188h9.175v9.188Zm-12.433,0v-9.188h9.175v9.188Zm-12.432,0v-9.188h9.175v9.188Zm-12.433,0v-9.188h9.175v9.188Zm-12.432,0v-9.188h9.175v9.188Zm-12.432,0v-9.188h9.175v9.188Zm-12.433,0v-9.188h9.175v9.188Zm-12.432,0v-9.188h9.175v9.188Zm-12.432,0v-9.188h9.175v9.188Zm-12.433,0v-9.188h9.175v9.188Zm-12.432,0v-9.188h9.175v9.188Zm-12.432,0v-9.188H133.5v9.188Zm-12.433,0v-9.188h9.175v9.188Zm-12.432,0v-9.188h9.175v9.188Zm-12.433,0v-9.188H96.2v9.188Zm-12.432,0v-9.188h9.175v9.188Zm-12.432,0v-9.188h9.175v9.188Zm-12.432,0v-9.188H58.9v9.188Zm-12.433,0v-9.188h9.175v9.188Zm-12.432,0v-9.188H34.04v9.188ZM0,156.611v-9.188H9.175v9.188Zm1404.825-12.285v-9.188H1414v9.188Zm-49.729,0v-9.188h9.175v9.188Zm-12.432,0v-9.188h9.175v9.188Zm-12.433,0v-9.188h9.175v9.188Zm-12.432,0v-9.188h9.175v9.188Zm-12.433,0v-9.188h9.175v9.188Zm-12.431,0v-9.188h9.175v9.188Zm-12.433,0v-9.188h9.175v9.188Zm-12.432,0v-9.188h9.175v9.188Zm-12.433,0v-9.188h9.176v9.188Zm-12.432,0v-9.188h9.176v9.188Zm-12.432,0v-9.188h9.175v9.188Zm-12.432,0v-9.188h9.175v9.188Zm-12.432,0v-9.188h9.175v9.188Zm-12.432,0v-9.188h9.176v9.188Zm-12.433,0v-9.188h9.175v9.188Zm-12.432,0v-9.188h9.175v9.188Zm-12.432,0v-9.188h9.175v9.188Zm-12.433,0v-9.188h9.175v9.188Zm-12.432,0v-9.188h9.175v9.188Zm-12.432,0v-9.188h9.175v9.188Zm-12.433,0v-9.188h9.175v9.188Zm-12.432,0v-9.188h9.175v9.188Zm-12.432,0v-9.188h9.175v9.188Zm-12.433,0v-9.188h9.176v9.188Zm-12.431,0v-9.188h9.175v9.188Zm-12.433,0v-9.188h9.175v9.188Zm-12.432,0v-9.188h9.175v9.188Zm-12.432,0v-9.188h9.175v9.188Zm-12.432,0v-9.188h9.176v9.188Zm-12.432,0v-9.188h9.175v9.188Zm-12.432,0v-9.188h9.175v9.188Zm-12.433,0v-9.188h9.175v9.188Zm-12.432,0v-9.188h9.175v9.188Zm-12.432,0v-9.188h9.175v9.188Zm-12.433,0v-9.188h9.175v9.188Zm-12.432,0v-9.188h9.175v9.188Zm-12.433,0v-9.188h9.175v9.188Zm-12.432,0v-9.188h9.176v9.188Zm-12.432,0v-9.188h9.176v9.188Zm-12.432,0v-9.188h9.175v9.188Zm-12.433,0v-9.188h9.175v9.188Zm-12.432,0v-9.188h9.175v9.188Zm-12.433,0v-9.188h9.175v9.188Zm-12.432,0v-9.188h9.175v9.188Zm-12.432,0v-9.188h9.174v9.188Zm-12.432,0v-9.188h9.175v9.188Zm-12.433,0v-9.188H792.4v9.188Zm-12.432,0v-9.188h9.175v9.188Zm-24.864,0v-9.188H755.1v9.188Zm-12.432,0v-9.188h9.175v9.188Zm-12.433,0v-9.188h9.175v9.188Zm-111.888,0v-9.188h9.175v9.188Zm-12.432,0v-9.188h9.175v9.188Zm-12.432,0v-9.188h9.175v9.188Zm-87.025,0v-9.188h9.175v9.188Zm-12.433,0v-9.188h9.175v9.188Zm-12.431,0v-9.188h9.175v9.188Zm-62.162,0v-9.188h9.175v9.188Zm-12.432,0v-9.188H407v9.188Zm-12.432,0v-9.188h9.175v9.188Zm-12.433,0v-9.188h9.175v9.188Zm-37.3,0v-9.188h9.175v9.188Zm-12.433,0v-9.188h9.175v9.188Zm-12.432,0v-9.188h9.175v9.188Zm-12.433,0v-9.188h9.175v9.188Zm-12.432,0v-9.188h9.175v9.188Zm-12.433,0v-9.188h9.175v9.188Zm-12.431,0v-9.188h9.175v9.188Zm-12.433,0v-9.188h9.175v9.188Zm-12.432,0v-9.188h9.175v9.188Zm-12.433,0v-9.188h9.175v9.188Zm-12.432,0v-9.188h9.175v9.188Zm-12.432,0v-9.188h9.175v9.188Zm-12.433,0v-9.188h9.175v9.188Zm-12.432,0v-9.188h9.175v9.188Zm-12.432,0v-9.188h9.175v9.188Zm-12.433,0v-9.188h9.175v9.188Zm-12.432,0v-9.188h9.175v9.188Zm-12.432,0v-9.188H133.5v9.188Zm-12.433,0v-9.188h9.175v9.188Zm-12.432,0v-9.188h9.175v9.188Zm-12.433,0v-9.188H96.2v9.188Zm-12.432,0v-9.188h9.175v9.188Zm-12.432,0v-9.188h9.175v9.188Zm-12.432,0v-9.188H58.9v9.188Zm-12.433,0v-9.188h9.175v9.188Zm-12.432,0v-9.188H34.04v9.188Zm-12.433,0v-9.188h9.175v9.188Zm1392.393-12.285v-9.188H1414v9.188Zm-12.432,0v-9.188h9.175v9.188Zm-12.432,0v-9.188h9.175v9.188Zm-12.433,0v-9.188h9.175v9.188Zm-12.432,0v-9.188h9.175v9.188Zm-12.432,0v-9.188h9.175v9.188Zm-12.433,0v-9.188h9.175v9.188Zm-12.432,0v-9.188h9.175v9.188Zm-12.433,0v-9.188h9.175v9.188Zm-12.431,0v-9.188h9.175v9.188Zm-12.433,0v-9.188h9.175v9.188Zm-12.432,0v-9.188h9.175v9.188Zm-12.433,0v-9.188h9.176v9.188Zm-12.432,0v-9.188h9.176v9.188Zm-12.432,0v-9.188h9.175v9.188Zm-12.432,0v-9.188h9.175v9.188Zm-12.432,0v-9.188h9.175v9.188Zm-12.432,0v-9.188h9.176v9.188Zm-12.433,0v-9.188h9.175v9.188Zm-12.432,0v-9.188h9.175v9.188Zm-12.432,0v-9.188h9.175v9.188Zm-12.433,0v-9.188h9.175v9.188Zm-12.432,0v-9.188h9.175v9.188Zm-12.432,0v-9.188h9.175v9.188Zm-12.433,0v-9.188h9.175v9.188Zm-12.432,0v-9.188h9.175v9.188Zm-12.432,0v-9.188h9.175v9.188Zm-12.433,0v-9.188h9.176v9.188Zm-12.431,0v-9.188h9.175v9.188Zm-12.433,0v-9.188h9.175v9.188Zm-12.432,0v-9.188h9.175v9.188Zm-12.432,0v-9.188h9.175v9.188Zm-12.432,0v-9.188h9.176v9.188Zm-12.432,0v-9.188h9.175v9.188Zm-12.432,0v-9.188h9.175v9.188Zm-12.433,0v-9.188h9.175v9.188Zm-12.432,0v-9.188h9.175v9.188Zm-12.432,0v-9.188h9.175v9.188Zm-12.433,0v-9.188h9.175v9.188Zm-12.432,0v-9.188h9.175v9.188Zm-12.433,0v-9.188h9.175v9.188Zm-12.432,0v-9.188h9.176v9.188Zm-12.432,0v-9.188h9.176v9.188Zm-12.432,0v-9.188h9.175v9.188Zm-12.433,0v-9.188h9.175v9.188Zm-12.432,0v-9.188h9.175v9.188Zm-24.864,0v-9.188h9.175v9.188Zm-12.432,0v-9.188h9.174v9.188Zm-12.432,0v-9.188h9.175v9.188Zm-12.433,0v-9.188H792.4v9.188Zm-12.432,0v-9.188h9.175v9.188Zm-12.433,0v-9.188h9.175v9.188Zm-12.432,0v-9.188H755.1v9.188Zm-12.432,0v-9.188h9.175v9.188Zm-12.433,0v-9.188h9.175v9.188Zm-111.888,0v-9.188h9.175v9.188Zm-12.432,0v-9.188h9.175v9.188Zm-74.592,0v-9.188h9.175v9.188Zm-12.433,0v-9.188h9.175v9.188Zm-12.432,0v-9.188h9.175v9.188Zm-12.433,0v-9.188h9.175v9.188Zm-12.431,0v-9.188h9.175v9.188Zm-12.433,0v-9.188h9.175v9.188Zm-37.3,0v-9.188h9.175v9.188Zm-12.433,0v-9.188h9.175v9.188Zm-12.432,0v-9.188H407v9.188Zm-12.432,0v-9.188h9.175v9.188Zm-37.3,0v-9.188h9.175v9.188Zm-12.432,0v-9.188h9.175v9.188Zm-12.433,0v-9.188h9.175v9.188Zm-12.432,0v-9.188h9.175v9.188Zm-12.433,0v-9.188h9.175v9.188Zm-12.432,0v-9.188h9.175v9.188Zm-12.433,0v-9.188h9.175v9.188Zm-12.431,0v-9.188h9.175v9.188Zm-12.433,0v-9.188h9.175v9.188Zm-12.432,0v-9.188h9.175v9.188Zm-12.433,0v-9.188h9.175v9.188Zm-12.432,0v-9.188h9.175v9.188Zm-12.432,0v-9.188h9.175v9.188Zm-12.433,0v-9.188h9.175v9.188Zm-12.432,0v-9.188h9.175v9.188Zm-12.432,0v-9.188h9.175v9.188Zm-12.433,0v-9.188h9.175v9.188Zm-12.432,0v-9.188h9.175v9.188Zm-12.432,0v-9.188H133.5v9.188Zm-12.433,0v-9.188h9.175v9.188Zm-12.432,0v-9.188h9.175v9.188Zm-12.433,0v-9.188H96.2v9.188Zm-12.432,0v-9.188h9.175v9.188Zm-12.432,0v-9.188h9.175v9.188Zm-12.432,0v-9.188H58.9v9.188Zm-12.433,0v-9.188h9.175v9.188ZM1379.96,119.756v-9.188h9.175v9.188Zm-12.433,0v-9.188h9.175v9.188Zm-12.432,0v-9.188h9.175v9.188Zm-12.432,0v-9.188h9.175v9.188Zm-12.433,0v-9.188h9.175v9.188Zm-12.432,0v-9.188h9.175v9.188Zm-12.433,0v-9.188h9.175v9.188Zm-12.431,0v-9.188h9.175v9.188Zm-12.433,0v-9.188h9.175v9.188Zm-12.432,0v-9.188h9.175v9.188Zm-12.433,0v-9.188h9.176v9.188Zm-12.432,0v-9.188h9.176v9.188Zm-12.432,0v-9.188h9.175v9.188Zm-12.432,0v-9.188h9.175v9.188Zm-12.432,0v-9.188h9.175v9.188Zm-12.432,0v-9.188h9.176v9.188Zm-12.433,0v-9.188h9.175v9.188Zm-12.432,0v-9.188h9.175v9.188Zm-12.432,0v-9.188h9.175v9.188Zm-12.433,0v-9.188h9.175v9.188Zm-12.432,0v-9.188h9.175v9.188Zm-12.432,0v-9.188h9.175v9.188Zm-12.433,0v-9.188h9.175v9.188Zm-12.432,0v-9.188h9.175v9.188Zm-12.432,0v-9.188h9.175v9.188Zm-12.433,0v-9.188h9.176v9.188Zm-12.431,0v-9.188h9.175v9.188Zm-12.433,0v-9.188h9.175v9.188Zm-12.432,0v-9.188h9.175v9.188Zm-12.432,0v-9.188h9.175v9.188Zm-12.432,0v-9.188h9.176v9.188Zm-12.432,0v-9.188h9.175v9.188Zm-12.432,0v-9.188h9.175v9.188Zm-37.3,0v-9.188h9.175v9.188Zm-12.433,0v-9.188h9.175v9.188Zm-12.432,0v-9.188h9.175v9.188Zm-12.433,0v-9.188h9.175v9.188Zm-12.432,0v-9.188h9.176v9.188Zm-12.432,0v-9.188h9.176v9.188Zm-24.864,0v-9.188h9.175v9.188Zm-12.432,0v-9.188h9.175v9.188Zm-24.864,0v-9.188h9.175v9.188Zm-12.432,0v-9.188h9.174v9.188Zm-12.432,0v-9.188h9.175v9.188Zm-12.433,0v-9.188H792.4v9.188Zm-12.432,0v-9.188h9.175v9.188Zm-12.433,0v-9.188h9.175v9.188Zm-12.432,0v-9.188H755.1v9.188Zm-12.432,0v-9.188h9.175v9.188Zm-186.482,0v-9.188h9.176v9.188Zm-12.432,0v-9.188h9.176v9.188Zm-12.432,0v-9.188h9.175v9.188Zm-12.433,0v-9.188h9.175v9.188Zm-12.432,0v-9.188h9.175v9.188Zm-12.433,0v-9.188h9.175v9.188Zm-12.431,0v-9.188h9.175v9.188Zm-12.433,0v-9.188h9.175v9.188Zm-49.729,0v-9.188h9.175v9.188Zm-12.432,0v-9.188H407v9.188Zm-12.432,0v-9.188h9.175v9.188Zm-12.433,0v-9.188h9.175v9.188Zm-24.864,0v-9.188h9.175v9.188Zm-12.432,0v-9.188h9.175v9.188Zm-12.433,0v-9.188h9.175v9.188Zm-12.432,0v-9.188h9.175v9.188Zm-12.433,0v-9.188h9.175v9.188Zm-12.432,0v-9.188h9.175v9.188Zm-12.433,0v-9.188h9.175v9.188Zm-12.431,0v-9.188h9.175v9.188Zm-12.433,0v-9.188h9.175v9.188Zm-37.3,0v-9.188h9.175v9.188Zm-12.432,0v-9.188h9.175v9.188Zm-12.433,0v-9.188h9.175v9.188Zm-12.432,0v-9.188h9.175v9.188Zm-12.432,0v-9.188h9.175v9.188Zm-12.433,0v-9.188h9.175v9.188Zm-24.864,0v-9.188H133.5v9.188Zm-12.433,0v-9.188h9.175v9.188Zm-12.432,0v-9.188h9.175v9.188Zm-12.433,0v-9.188H96.2v9.188Zm-12.432,0v-9.188h9.175v9.188Zm-12.432,0v-9.188h9.175v9.188Zm-12.432,0v-9.188H58.9v9.188Zm-12.433,0v-9.188h9.175v9.188Zm-12.432,0v-9.188H34.04v9.188ZM1367.528,107.47V98.283h9.175v9.188Zm-24.863,0V98.283h9.175v9.188Zm-49.728,0V98.283h9.175v9.188Zm-12.433,0V98.283h9.175v9.188Zm-12.432,0V98.283h9.175v9.188Zm-12.433,0V98.283h9.176v9.188Zm-12.432,0V98.283h9.176v9.188Zm-12.432,0V98.283h9.175v9.188Zm-12.432,0V98.283h9.175v9.188Zm-12.432,0V98.283h9.175v9.188Zm-12.432,0V98.283h9.176v9.188Zm-12.433,0V98.283h9.175v9.188Zm-12.432,0V98.283h9.175v9.188Zm-12.432,0V98.283h9.175v9.188Zm-12.433,0V98.283h9.175v9.188Zm-12.432,0V98.283h9.175v9.188Zm-12.432,0V98.283h9.175v9.188Zm-12.433,0V98.283h9.175v9.188Zm-12.432,0V98.283h9.175v9.188Zm-12.432,0V98.283h9.175v9.188Zm-12.433,0V98.283h9.176v9.188Zm-12.431,0V98.283h9.175v9.188Zm-12.433,0V98.283h9.175v9.188Zm-12.432,0V98.283h9.175v9.188Zm-12.432,0V98.283h9.175v9.188Zm-12.432,0V98.283h9.176v9.188Zm-12.432,0V98.283h9.175v9.188Zm-12.432,0V98.283h9.175v9.188Zm-12.433,0V98.283h9.175v9.188Zm-24.864,0V98.283h9.175v9.188Zm-12.433,0V98.283h9.175v9.188Zm-24.864,0V98.283h9.175v9.188Zm-12.432,0V98.283h9.176v9.188Zm-111.888,0V98.283H792.4v9.188Zm-12.432,0V98.283h9.175v9.188Zm-12.433,0V98.283h9.175v9.188Zm-174.048,0V98.283h9.175v9.188Zm-12.433,0V98.283h9.175v9.188Zm-12.432,0V98.283h9.175v9.188Zm-12.433,0V98.283h9.176v9.188Zm-12.432,0V98.283h9.176v9.188Zm-12.432,0V98.283h9.175v9.188Zm-12.433,0V98.283h9.175v9.188Zm-12.432,0V98.283h9.175v9.188Zm-12.433,0V98.283h9.175v9.188Zm-12.431,0V98.283h9.175v9.188Zm-12.433,0V98.283h9.175v9.188Zm-62.161,0V98.283H407v9.188Zm-12.432,0V98.283h9.175v9.188Zm-12.433,0V98.283h9.175v9.188Zm-12.432,0V98.283h9.175v9.188Zm-12.432,0V98.283h9.175v9.188Zm-12.432,0V98.283h9.175v9.188Zm-12.433,0V98.283h9.175v9.188Zm-24.864,0V98.283h9.175v9.188Zm-37.3,0V98.283h9.175v9.188Zm-12.433,0V98.283h9.175v9.188Zm-12.432,0V98.283h9.175v9.188Zm-12.433,0V98.283h9.175v9.188Zm-62.16,0V98.283h9.175v9.188Zm-49.729,0V98.283h9.175v9.188Zm-12.432,0V98.283h9.175v9.188Zm-12.433,0V98.283H96.2v9.188Zm-12.432,0V98.283h9.175v9.188Zm-12.432,0V98.283h9.175v9.188Zm-12.432,0V98.283H58.9v9.188Zm-12.433,0V98.283h9.175v9.188Zm1355.1-12.285V86h9.175v9.188Zm-12.432,0V86h9.175v9.188Zm-124.321,0V86h9.176v9.188Zm-24.863,0V86h9.175v9.188Zm-12.432,0V86h9.175v9.188Zm-62.16,0V86h9.175v9.188Zm-12.433,0V86h9.175v9.188Zm-12.432,0V86h9.175v9.188Zm-12.432,0V86h9.175v9.188Zm-12.433,0V86h9.175v9.188Zm-12.432,0V86h9.175v9.188Zm-12.432,0V86h9.175v9.188Zm-12.433,0V86h9.176v9.188Zm-12.431,0V86h9.175v9.188Zm-12.433,0V86h9.175v9.188Zm-12.432,0V86h9.175v9.188Zm-12.432,0V86h9.175v9.188Zm-12.432,0V86h9.176v9.188Zm-24.864,0V86h9.175v9.188Zm-24.864,0V86h9.175v9.188Zm-12.432,0V86h9.175v9.188Zm-12.433,0V86h9.175v9.188Zm-49.728,0V86h9.176v9.188Zm-310.8,0V86h9.175v9.188Zm-12.432,0V86h9.175v9.188Zm-12.433,0V86h9.176v9.188Zm-12.432,0V86h9.176v9.188Zm-12.432,0V86h9.175v9.188Zm-12.433,0V86h9.175v9.188Zm-12.432,0V86h9.175v9.188Zm-12.433,0V86h9.175v9.188Zm-12.431,0V86h9.175v9.188Zm-12.433,0V86h9.175v9.188Zm-87.025,0V86h9.175v9.188Zm-12.432,0V86h9.175v9.188Zm-12.432,0V86h9.175v9.188Zm-12.432,0V86h9.175v9.188Zm-12.433,0V86h9.175v9.188Zm-24.864,0V86h9.175v9.188Zm-12.432,0V86h9.175v9.188Zm-12.433,0V86h9.175v9.188Zm-24.864,0V86h9.175v9.188Zm-12.432,0V86h9.175v9.188Zm-12.433,0V86h9.175v9.188Zm-12.432,0V86h9.175v9.188Zm-24.864,0V86h9.175v9.188ZM1230.776,82.9V73.712h9.175V82.9Zm-12.432,0V73.712h9.175V82.9Zm-49.728,0V73.712h9.175V82.9Zm-12.432,0V73.712h9.175V82.9Zm-37.3,0V73.712h9.175V82.9Zm-12.433,0V73.712h9.175V82.9Zm-12.432,0V73.712h9.175V82.9Zm-12.432,0V73.712h9.175V82.9Zm-12.433,0V73.712h9.176V82.9Zm-12.431,0V73.712h9.175V82.9Zm-12.433,0V73.712h9.175V82.9Zm-12.432,0V73.712h9.175V82.9Zm-12.432,0V73.712h9.175V82.9ZM1007,82.9V73.712h9.176V82.9Zm-12.432,0V73.712h9.175V82.9Zm-99.457,0V73.712h9.176V82.9Zm-12.432,0V73.712h9.176V82.9Zm-298.369,0V73.712h9.175V82.9Zm-12.433,0V73.712h9.175V82.9Zm-12.432,0V73.712h9.175V82.9Zm-12.433,0V73.712h9.176V82.9Zm-12.432,0V73.712h9.176V82.9Zm-12.432,0V73.712h9.175V82.9Zm-12.433,0V73.712h9.175V82.9Zm-12.432,0V73.712h9.175V82.9Zm-12.433,0V73.712h9.175V82.9Zm-12.431,0V73.712h9.175V82.9Zm-12.433,0V73.712h9.175V82.9Zm-99.457,0V73.712h9.175V82.9Zm-49.728,0V73.712h9.175V82.9Zm-12.433,0V73.712h9.175V82.9Zm-12.432,0V73.712h9.175V82.9Zm-12.433,0V73.712h9.175V82.9Zm-24.864,0V73.712h9.175V82.9Zm-37.3,0V73.712h9.175V82.9Zm-12.432,0V73.712h9.175V82.9Zm-12.433,0V73.712h9.175V82.9ZM1255.639,70.615V61.426h9.176v9.189Zm-12.432,0V61.426h9.176v9.189Zm-12.432,0V61.426h9.175v9.189Zm-12.432,0V61.426h9.175v9.189Zm-12.432,0V61.426h9.175v9.189Zm-99.457,0V61.426h9.175v9.189Zm-12.432,0V61.426h9.175v9.189Zm-12.432,0V61.426h9.175v9.189Zm-12.433,0V61.426h9.176v9.189Zm-12.431,0V61.426h9.175v9.189Zm-12.433,0V61.426h9.175v9.189Zm-12.432,0V61.426h9.175v9.189Zm-12.432,0V61.426h9.175v9.189Zm-24.864,0V61.426h9.175v9.189Zm-74.592,0V61.426h9.175v9.189Zm-12.433,0V61.426h9.175v9.189Zm-161.616,0V61.426H755.1v9.189Zm-149.185,0V61.426h9.175v9.189Zm-12.432,0V61.426h9.175v9.189Zm-12.433,0V61.426h9.175v9.189Zm-12.432,0V61.426h9.175v9.189Zm-12.433,0V61.426h9.176v9.189Zm-12.432,0V61.426h9.176v9.189Zm-12.432,0V61.426h9.175v9.189Zm-12.433,0V61.426h9.175v9.189Zm-12.432,0V61.426h9.175v9.189Zm-12.433,0V61.426h9.175v9.189Zm-12.431,0V61.426h9.175v9.189Zm-24.864,0V61.426h9.175v9.189Zm-99.457,0V61.426h9.175v9.189Zm-12.432,0V61.426h9.175v9.189Zm-12.433,0V61.426h9.175v9.189Zm-12.432,0V61.426h9.175v9.189Zm-12.433,0V61.426h9.175v9.189Zm-24.864,0V61.426h9.175v9.189Zm-12.431,0V61.426h9.175v9.189Zm-12.433,0V61.426h9.175v9.189Zm-12.432,0V61.426h9.175v9.189Zm-12.433,0V61.426h9.175v9.189Zm-24.864,0V61.426h9.175v9.189ZM1268.072,58.329V49.141h9.175v9.188Zm-186.481,0V49.141h9.175v9.188Zm-12.433,0V49.141h9.176v9.188Zm-136.753,0V49.141h9.175v9.188Zm-174.049,0V49.141h9.175v9.188Zm-24.864,0V49.141h9.175v9.188Zm-149.185,0V49.141h9.175v9.188Zm-12.433,0V49.141h9.175v9.188Zm-12.432,0V49.141h9.175v9.188Zm-12.433,0V49.141h9.176v9.188Zm-12.432,0V49.141h9.176v9.188Zm-12.432,0V49.141h9.175v9.188Zm-12.433,0V49.141h9.175v9.188Zm-12.432,0V49.141h9.175v9.188Zm-12.433,0V49.141h9.175v9.188Zm-12.431,0V49.141h9.175v9.188Zm-12.433,0V49.141h9.175v9.188Zm-12.432,0V49.141h9.175v9.188Zm-12.433,0V49.141H444.3v9.188Zm-12.432,0V49.141h9.175v9.188Zm-12.433,0V49.141h9.175v9.188Zm-12.432,0V49.141H407v9.188Zm-37.3,0V49.141h9.175v9.188Zm-12.432,0V49.141h9.175v9.188Zm-12.432,0V49.141h9.175v9.188Zm-12.433,0V49.141h9.175v9.188Zm-24.864,0V49.141h9.175v9.188Zm-74.592,0V49.141h9.175v9.188Zm-12.432,0V49.141h9.175v9.188Zm-12.432,0V49.141h9.175v9.188Zm882.677-12.285V36.856h9.175v9.188Zm-12.433,0V36.856h9.176v9.188Zm-12.431,0V36.856h9.175v9.188Zm-310.8,0V36.856H755.1v9.188Zm-12.432,0V36.856h9.175v9.188Zm-12.433,0V36.856h9.175v9.188Zm-12.432,0V36.856H717.8v9.188Zm-124.32,0V36.856h9.175v9.188Zm-12.433,0V36.856h9.175v9.188Zm-12.432,0V36.856h9.175v9.188Zm-12.433,0V36.856h9.176v9.188Zm-12.432,0V36.856h9.176v9.188Zm-12.432,0V36.856h9.175v9.188Zm-12.433,0V36.856h9.175v9.188Zm-12.432,0V36.856h9.175v9.188Zm-12.433,0V36.856h9.175v9.188Zm-12.431,0V36.856h9.175v9.188Zm-12.433,0V36.856h9.175v9.188Zm-12.432,0V36.856h9.175v9.188Zm-12.433,0V36.856H444.3v9.188Zm-12.432,0V36.856h9.175v9.188Zm-12.433,0V36.856h9.175v9.188Zm-12.432,0V36.856H407v9.188Zm-24.864,0V36.856h9.175v9.188Zm-12.432,0V36.856h9.175v9.188Zm-12.432,0V36.856h9.175v9.188Zm-12.432,0V36.856h9.175v9.188Zm-12.433,0V36.856h9.175v9.188Zm-12.432,0V36.856h9.175v9.188Zm-37.3,0V36.856h9.175v9.188Zm-12.431,0V36.856h9.175v9.188Zm-24.864,0V36.856h9.175v9.188Zm820.517-12.285V24.57h9.175v9.188Zm-12.433,0V24.57h9.175v9.188Zm-12.432,0V24.57h9.175v9.188Zm-124.321,0V24.57h9.175v9.188Zm-12.432,0V24.57h9.176v9.188Zm-12.432,0V24.57h9.176v9.188Zm-12.432,0V24.57h9.175v9.188Zm-12.433,0V24.57h9.175v9.188Zm-49.728,0V24.57h9.174v9.188Zm-37.3,0V24.57h9.175v9.188Zm-12.433,0V24.57h9.175v9.188Zm-12.432,0V24.57H755.1v9.188Zm-12.432,0V24.57h9.175v9.188Zm-12.433,0V24.57h9.175v9.188Zm-124.32,0V24.57h9.175v9.188Zm-12.432,0V24.57h9.175v9.188Zm-12.433,0V24.57h9.175v9.188Zm-12.432,0V24.57h9.175v9.188Zm-12.433,0V24.57h9.176v9.188Zm-12.432,0V24.57h9.176v9.188Zm-12.432,0V24.57h9.175v9.188Zm-12.433,0V24.57h9.175v9.188Zm-12.432,0V24.57h9.175v9.188Zm-12.433,0V24.57h9.175v9.188Zm-12.431,0V24.57h9.175v9.188Zm-12.433,0V24.57h9.175v9.188Zm-12.432,0V24.57h9.175v9.188Zm-12.433,0V24.57H444.3v9.188Zm-12.432,0V24.57h9.175v9.188Zm-12.433,0V24.57h9.175v9.188Zm-12.432,0V24.57H407v9.188Zm-12.432,0V24.57h9.175v9.188Zm-12.433,0V24.57h9.175v9.188Zm-12.432,0V24.57h9.175v9.188Zm-12.432,0V24.57h9.175v9.188Zm-12.432,0V24.57h9.175v9.188Zm-12.433,0V24.57h9.175v9.188Zm-12.432,0V24.57h9.175v9.188Zm-12.433,0V24.57h9.175v9.188Zm-24.864,0V24.57h9.175v9.188Zm770.789-12.285V12.285h9.175v9.188Zm-12.432,0V12.285h9.175v9.188Zm-12.432,0V12.285h9.175v9.188Zm-99.457,0V12.285h9.175v9.188Zm-12.433,0V12.285h9.175v9.188Zm-12.432,0V12.285h9.176v9.188Zm-24.863,0V12.285h9.175v9.188Zm-24.865,0V12.285h9.175v9.188Zm-236.21,0V12.285h9.175v9.188Zm-12.432,0V12.285h9.175v9.188Zm-12.432,0V12.285h9.175v9.188Zm-12.433,0V12.285h9.175v9.188Zm-12.432,0V12.285h9.175v9.188Zm-12.433,0V12.285h9.176v9.188Zm-12.432,0V12.285h9.176v9.188Zm-12.432,0V12.285h9.175v9.188Zm-12.433,0V12.285h9.175v9.188Zm-12.432,0V12.285h9.175v9.188Zm-12.433,0V12.285h9.175v9.188Zm-12.431,0V12.285h9.175v9.188Zm-12.433,0V12.285h9.175v9.188Zm-12.432,0V12.285h9.175v9.188Zm-12.433,0V12.285H444.3v9.188Zm-24.864,0V12.285h9.175v9.188Zm-12.432,0V12.285H407v9.188Zm-12.432,0V12.285h9.175v9.188Zm-12.433,0V12.285h9.175v9.188Zm-12.432,0V12.285h9.175v9.188Zm-12.432,0V12.285h9.175v9.188Zm-12.432,0V12.285h9.175v9.188Zm-12.433,0V12.285h9.175v9.188ZM571.875,9.188V0h9.175V9.188Zm-12.432,0V0h9.175V9.188Zm-12.433,0V0h9.176V9.188Zm-12.432,0V0h9.176V9.188Zm-12.432,0V0h9.175V9.188Zm-12.433,0V0h9.175V9.188Zm-12.432,0V0h9.175V9.188Zm-12.433,0V0h9.175V9.188Zm-12.431,0V0h9.175V9.188Zm-62.162,0V0h9.175V9.188Zm-12.432,0V0H407V9.188Zm-12.432,0V0h9.175V9.188Zm-12.433,0V0h9.175V9.188Zm-12.432,0V0h9.175V9.188Zm-12.432,0V0h9.175V9.188Z" fill="#fff" opacity="0.4"/>
</svg>
