<svg xmlns="http://www.w3.org/2000/svg" xmlns:xlink="http://www.w3.org/1999/xlink" width="1623.211" height="355.476" viewBox="0 0 1623.211 355.476">
  <defs>
    <linearGradient id="linear-gradient" x1="0.5" x2="0.5" y2="0.804" gradientUnits="objectBoundingBox">
      <stop offset="0" stop-color="#f8f8f8"/>
      <stop offset="1" stop-color="#ebeced"/>
    </linearGradient>
  </defs>
  <path id="Union_1" data-name="Union 1" d="M1455.541,355.476V321.856h14.834q22.486,0,32.146-9.411t9.664-33.171l.452-203.066h36.4l-.446,203.066q0,76.2-79.565,76.2Zm-282.07-86.738a105.406,105.406,0,0,1-38.2-38.324,104.2,104.2,0,0,1,0-104.895,104.237,104.237,0,0,1,91.026-52q36.848,0,63.381,21.966,12.578,10.324,36.861,46.171L1178.65,225.93q19.768,19.276,47.646,19.273,22.922,0,40.685-12.1t34.833-35.858l43.151-60.52V76.656h35.967v25.1q14.836-14.794,26.969-21.068a67.716,67.716,0,0,1,27.42-7.174q3.8-.3,7.415-.3a68.21,68.21,0,0,1,22.933,3.659q13.25,4.7,29.445,17.255l-23.38,30.487q-9.887-18.375-32.813-17.483-17.984.907-35.515,17.483t-28.32,30.928l-.449.448q-17.978,23.312-44.05,62.312a12.837,12.837,0,0,0-2.251,3.587q-18.881,28.234-43.6,44.6Q1260,282.862,1226.3,282.857A102.422,102.422,0,0,1,1173.471,268.738Zm4.949-138.289q-19.549,19.736-19.556,47.512a80.884,80.884,0,0,0,2.246,18.831l114.18-64.55q-20.227-21.512-48.995-21.515Q1197.97,110.727,1178.42,130.449ZM25.877,268.963Q.931,252.82.033,220.55q-.906-32.72,22.926-51.775t66.078-19.055h57.542q0-22.854-13.262-31.147t-37.986-8.3H27V76.211h66.53q47.645,0,68.551,19.275t20.908,62.758V279.276H147.025v-25.1c-.3.3-.6.6-.9.893A104.663,104.663,0,0,1,123.2,274.117q-11.688,6.964-33.716,8.3-5.524.384-10.765.384Q47.262,282.8,25.877,268.963Zm26.076-76.879q-13.271,8.744-13.716,23.537-.9,18.824,14.389,26.894Q63.2,248.1,77.871,248.1A93.209,93.209,0,0,0,91.735,247a61.484,61.484,0,0,0,27.423-10.979q12.138-8.749,27.867-28.467v-24.21H89.037Q65.211,183.341,51.953,192.083ZM253.777,269.19a104.864,104.864,0,0,1-38.212-38.554,105.475,105.475,0,0,1,0-105.567,105.416,105.416,0,0,1,38.212-38.325,99.225,99.225,0,0,1,52.816-13.674q37.307.907,66.98,28.688V0h36.41V279.275h-36.41v-25.1a117.726,117.726,0,0,1-31.694,20.62,86.858,86.858,0,0,1-35.287,7.619c-1.149.036-2.289.054-3.426.054A95.8,95.8,0,0,1,253.777,269.19Zm4.943-138.741a65.062,65.062,0,0,0-19.553,47.517q0,27.8,19.553,47.52T306.593,245.2q27.865,0,47.43-19.719t19.55-47.52q0-27.791-19.55-47.517t-47.43-19.721Q278.284,110.727,258.72,130.449ZM730.7,268.288a105.954,105.954,0,0,1-38.2-38.1,104.218,104.218,0,0,1,0-104.892,106.047,106.047,0,0,1,38.2-38.1,102.449,102.449,0,0,1,52.827-14.121q36.848,0,63.381,22.417,12.576,10.32,36.857,45.72L735.873,225.481q19.776,19.725,47.65,19.72,22.469,0,41.58-13.893a129.305,129.305,0,0,0,33.037-35.858q24.276-39.007,44.05-61.861V76.209h35.967v25.55q29.212-27.335,67.424-28.691c1.859-.066,3.685-.1,5.487-.1q46.161,0,68.464,28.789,23.6,30.485,23.6,77.1V280.616h-35.957V178.858q0-73.06-61.591-70.377-32.822,1.346-59.557,30.258-26.753,28.915-52.82,70.154-5.391,9.41-7.643,12.549-18.885,28.251-43.6,44.61-24.738,16.365-58.439,16.358A102.45,102.45,0,0,1,730.7,268.288Zm4.952-137.841q-19.551,19.736-19.556,47.518a75.415,75.415,0,0,0,2.245,18.38l114.181-64.555q-20.233-21.069-48.995-21.064Q755.2,110.727,735.648,130.447Zm609.316,149.274V220.1q8.994-16.581,35.967-53.348V279.721Zm236.894-.447V76.209h35.96V279.275Zm-679.666,0V219.651q9.443-18.826,35.967-54.238V279.275Zm-407.258,0V245.654H595.625q35.507,0,35.515-17.934,0-12.536-12.808-18.6-12.823-6.046-39.783-12.773-26.532-6.275-43.605-12.777a79.361,79.361,0,0,1-29.674-19.727q-12.587-13.211-13.482-35.186-.906-19.719,13.037-36.087t47.649-16.359H658.559v34.067H564.607q-15.284,0-25.169,3.582-9.894,3.6-9.892,14.351-.446,11.208,11.91,17.035t39.335,12.545a434.544,434.544,0,0,1,44.279,13.9,82.3,82.3,0,0,1,30.12,20.169q12.807,13.452,13.26,35.408.44,19.738-13.26,35.866-13.718,16.14-47.431,16.14Zm-57.528,0V76.209h35.961V279.275ZM1514.433,52.9a21.98,21.98,0,0,1-6.745-16.139,23,23,0,0,1,23.376-23.305,22.068,22.068,0,0,1,16.18,6.723,22.508,22.508,0,0,1,6.746,16.583,21.981,21.981,0,0,1-6.746,16.139,22.08,22.08,0,0,1-16.18,6.723A22.6,22.6,0,0,1,1514.433,52.9ZM439.2,52.9a21.989,21.989,0,0,1-6.75-16.138,22.514,22.514,0,0,1,6.75-16.586,22.067,22.067,0,0,1,16.18-6.723,23,23,0,0,1,23.375,23.308A21.985,21.985,0,0,1,472.013,52.9a22.631,22.631,0,0,1-16.629,6.721A22.082,22.082,0,0,1,439.2,52.9Zm1144.45,0a21.985,21.985,0,0,1-6.746-16.139,22.516,22.516,0,0,1,6.746-16.587,22.068,22.068,0,0,1,16.181-6.721,23,23,0,0,1,23.375,23.308,21.985,21.985,0,0,1-6.746,16.139,22.644,22.644,0,0,1-16.629,6.72A22.089,22.089,0,0,1,1583.654,52.9Z" fill="url(#linear-gradient)"/>
</svg>
